<svg width="144" height="33" viewBox="0 0 144 33" fill="none" xmlns="http://www.w3.org/2000/svg">
<path d="M16.036 0C7.19361 0 0 7.19361 0 16.036C0 24.8783 7.19361 32.0719 16.036 32.0719C24.8783 32.0719 32.0719 24.8783 32.0719 16.036C32.0719 7.19361 24.8783 0 16.036 0ZM27.7778 25.1081C26.416 24.383 24.7637 23.7867 22.932 23.3573C23.4202 21.3373 23.71 19.0614 23.7504 16.6299H30.8692C30.7433 19.8145 29.6095 22.7437 27.7778 25.1081ZM1.2027 16.6299H3.66392C3.91812 17.4358 4.66409 18.0262 5.55319 18.0262C6.46605 18.0262 7.22924 17.4049 7.46266 16.5657C7.54165 16.6037 7.62717 16.6299 7.72101 16.6299H8.32206C8.36245 19.0258 8.64397 21.272 9.1197 23.2705C7.26963 23.6738 5.58823 24.2434 4.17469 24.9561C2.41252 22.6184 1.32623 19.7462 1.2027 16.6299ZM4.20261 7.08017C5.57457 7.85405 7.23875 8.47767 9.08823 8.93024C8.63091 10.8961 8.36126 13.0972 8.32206 15.442H7.72101C7.62717 15.442 7.54165 15.4682 7.46266 15.5068C7.22924 14.667 6.46605 14.0463 5.55319 14.0463C4.66409 14.0463 3.91812 14.6361 3.66392 15.4426H1.2027C1.32683 12.3097 2.4244 9.42439 4.20261 7.08017ZM16.036 11.8785C16.3632 11.8785 16.6299 12.1452 16.6299 12.4724C16.6299 12.7997 16.3632 13.0663 16.036 13.0663C15.7087 13.0663 15.442 12.7997 15.442 12.4724C15.442 12.1452 15.7087 11.8785 16.036 11.8785ZM16.6299 14.1449C17.3194 13.8984 17.8177 13.2457 17.8177 12.4724C17.8177 11.6991 17.3194 11.0464 16.6299 10.7999V9.77124C18.4241 9.76174 20.1792 9.60613 21.8362 9.32639C22.2638 11.1866 22.5222 13.2617 22.5626 15.442H16.6299V14.1449ZM16.6299 8.58339V1.25496C18.6712 1.69625 20.4732 4.37781 21.5422 8.17418C19.9814 8.43135 18.3249 8.57389 16.6299 8.58339ZM15.442 1.25496V8.56201C13.7416 8.51034 12.1012 8.33038 10.5701 8.03282C11.6439 4.31129 13.4268 1.69031 15.442 1.25496ZM15.442 9.75936V10.7999C14.7519 11.0464 14.2542 11.6991 14.2542 12.4724C14.2542 13.2457 14.7519 13.8984 15.442 14.1443V15.442H9.50991C9.55089 13.2089 9.82054 11.0856 10.2672 9.19038C11.8951 9.5117 13.6407 9.7065 15.442 9.75936ZM6.35558 16.036C6.35558 16.4784 5.99566 16.8383 5.55319 16.8383C5.11072 16.8383 4.75139 16.4784 4.75139 16.036C4.75139 15.5935 5.11131 15.2336 5.55378 15.2336C5.99626 15.2336 6.35558 15.5935 6.35558 16.036ZM9.50991 16.6299H15.442V22.5798C13.6692 22.6 11.9379 22.7604 10.3046 23.0437C9.83538 21.1087 9.55208 18.926 9.50991 16.6299ZM15.442 23.7671V30.8169C13.4542 30.3875 11.6926 27.8337 10.614 24.1935C12.1475 23.9334 13.7737 23.7867 15.442 23.7671ZM16.6299 30.8169V23.773C16.6679 23.7742 16.7071 23.7742 16.7445 23.7754C16.9957 24.456 17.6449 24.9448 18.4116 24.9448C19.0798 24.9448 19.6559 24.5712 19.9606 24.0254C20.4631 24.0913 20.956 24.1686 21.4389 24.2582C20.3591 27.8645 18.6059 30.3899 16.6299 30.8169ZM18.4116 23.757C18.0838 23.757 17.8177 23.4909 17.8177 23.163C17.8177 22.8352 18.0838 22.5691 18.4116 22.5691C18.7395 22.5691 19.0056 22.8352 19.0056 23.163C19.0056 23.4909 18.7395 23.757 18.4116 23.757ZM20.1619 22.8548C20.0152 22.0191 19.2889 21.3813 18.4116 21.3813C17.6318 21.3813 16.9744 21.8885 16.7338 22.5869C16.6994 22.5863 16.6649 22.5857 16.6299 22.5852V16.6299H22.562C22.5198 18.9521 22.2294 21.1574 21.7513 23.1084C21.2316 23.0098 20.7012 22.9267 20.1619 22.8548ZM23.7498 15.442C23.7118 13.1679 23.457 11.028 23.0241 9.10723C24.9252 8.70336 26.6494 8.12191 28.0974 7.39257C29.7402 9.67859 30.7504 12.4469 30.8686 15.4414L23.7498 15.442ZM27.3484 6.43398C26.021 7.07601 24.4596 7.59391 22.7354 7.95621C21.974 5.19387 20.8283 2.97081 19.4379 1.58518C22.5733 2.32403 25.3279 4.0565 27.3484 6.43398ZM12.634 1.58578C11.2739 2.94111 10.1478 5.09528 9.38638 7.77387C7.72339 7.36822 6.22551 6.82003 4.97708 6.14118C6.97208 3.91396 9.6281 2.29314 12.634 1.58578ZM4.95214 25.9016C6.24274 25.2798 7.75487 24.7773 9.41964 24.418C10.1805 27.0414 11.2941 29.151 12.634 30.4861C9.61504 29.7758 6.9501 28.1437 4.95214 25.9016ZM19.4385 30.4861C20.763 29.1658 21.8665 27.0871 22.6261 24.5047C24.2713 24.8884 25.7585 25.4087 26.998 26.04C25.0143 28.2114 22.3951 29.79 19.4385 30.4861Z" fill="#FFBB01"/>
<path d="M47.5147 16.7471C47.5147 18.5918 48.437 19.6388 50.3067 19.6388C50.8302 19.6388 51.3039 19.564 51.6778 19.3895C52.3758 19.1153 52.8495 18.5918 53.0988 17.8689C53.1985 17.5199 53.2483 17.1459 53.2483 16.7471C53.2483 16.3482 53.1985 15.9743 53.0988 15.6252C52.8245 14.8524 52.4007 14.4287 51.6778 14.0796C51.3039 13.9301 50.8302 13.8553 50.3067 13.8553C48.437 13.8553 47.5147 14.9023 47.5147 16.7471ZM47.5147 21.7329V27.9651H43.7753V16.7471C43.7753 12.7584 46.5923 10.3901 50.3566 10.3901C54.1956 10.3901 56.9877 12.908 56.9877 16.7221C56.9877 20.262 54.3203 23.104 50.7804 23.104C50.0574 23.104 49.4342 22.9793 48.9107 22.73C48.3622 22.5057 47.8886 22.1567 47.5147 21.7329ZM65.1127 19.6388C66.9325 19.6388 67.9795 18.5669 67.9795 16.7471C67.9795 14.9272 66.9325 13.8553 65.1127 13.8553C63.2929 13.8553 62.2458 14.9272 62.2458 16.7471C62.2458 18.5669 63.2929 19.6388 65.1127 19.6388ZM65.1127 23.104C61.2736 23.104 58.5065 20.5612 58.5065 16.7471C58.5065 12.8083 61.3733 10.3901 65.1127 10.3901C68.9767 10.3901 71.7189 12.9329 71.7189 16.7471C71.7189 20.6609 68.8271 23.104 65.1127 23.104ZM77.7249 16.7471V22.9793H73.9855V16.772C73.9855 12.6338 77.0269 10.3901 80.866 10.3901C80.9906 10.3901 81.1651 10.3901 81.3396 10.4151C81.5141 10.44 81.7136 10.4899 81.8881 10.5148V14.1295C81.7634 14.1046 81.6138 14.0796 81.4393 14.0547C81.2648 14.0298 81.1153 14.0049 80.9906 14.0049C80.3674 14.0049 79.8688 14.0796 79.445 14.2043C78.747 14.4536 78.1238 14.9272 77.8994 15.6751C77.7748 15.9992 77.7249 16.3731 77.7249 16.7471ZM90.9105 10.9386V14.4037H87.4204V16.7471C87.4204 18.6666 88.6918 19.6388 90.5366 19.6388C90.7609 19.6388 90.9604 19.6139 91.1349 19.589C91.3094 19.564 91.4589 19.5391 91.6334 19.5142V22.9793C91.4091 23.0042 91.2346 23.0541 91.1099 23.079C90.9604 23.104 90.7111 23.104 90.387 23.104C86.6227 23.104 83.6811 20.5363 83.6811 16.7471V7.52331H87.4204V10.9386H90.9105ZM100.855 10.9386V14.4037H97.789V22.9793H94.0497V10.5397C94.0497 6.4015 97.091 4.15789 100.93 4.15789C101.055 4.15789 101.229 4.15789 101.404 4.18282C101.578 4.20775 101.778 4.25761 101.952 4.28254V7.89725C101.828 7.87232 101.678 7.84739 101.503 7.82246C101.329 7.79753 101.179 7.7726 101.055 7.7726C100.432 7.7726 99.9329 7.84739 99.5091 7.97203C98.8111 8.22132 98.1879 8.69497 97.9635 9.44285C97.8389 9.76692 97.789 10.1409 97.789 10.5148V10.9386H100.855ZM109.18 19.6388C111 19.6388 112.047 18.5669 112.047 16.7471C112.047 14.9272 111 13.8553 109.18 13.8553C107.36 13.8553 106.313 14.9272 106.313 16.7471C106.313 18.5669 107.36 19.6388 109.18 19.6388ZM109.18 23.104C105.341 23.104 102.574 20.5612 102.574 16.7471C102.574 12.8083 105.44 10.3901 109.18 10.3901C113.044 10.3901 115.786 12.9329 115.786 16.7471C115.786 20.6609 112.894 23.104 109.18 23.104ZM117.928 5.52899H121.667V22.9793H117.928V5.52899ZM124.657 10.5148H128.396V22.9793H124.657V10.5148ZM126.527 9.34313C125.255 9.34313 124.358 8.44568 124.358 7.1743C124.358 5.87799 125.255 5.03041 126.527 5.03041C127.823 5.03041 128.67 5.87799 128.67 7.1743C128.67 8.49554 127.848 9.34313 126.527 9.34313ZM137.394 19.6388C139.214 19.6388 140.261 18.5669 140.261 16.7471C140.261 14.9272 139.214 13.8553 137.394 13.8553C135.574 13.8553 134.527 14.9272 134.527 16.7471C134.527 18.5669 135.574 19.6388 137.394 19.6388ZM137.394 23.104C133.555 23.104 130.788 20.5612 130.788 16.7471C130.788 12.8083 133.654 10.3901 137.394 10.3901C141.258 10.3901 144 12.9329 144 16.7471C144 20.6609 141.108 23.104 137.394 23.104Z" fill="white"/>
</svg>
