<?xml version="1.0" standalone="no"?>
<!DOCTYPE svg PUBLIC "-//W3C//DTD SVG 20010904//EN"
 "http://www.w3.org/TR/2001/REC-SVG-20010904/DTD/svg10.dtd">
<svg version="1.0" xmlns="http://www.w3.org/2000/svg"
 width="1092.000000pt" height="875.000000pt" viewBox="0 0 1092.000000 875.000000"
 preserveAspectRatio="xMidYMid meet">

<g transform="translate(0.000000,875.000000) scale(0.100000,-0.100000)"
fill="#000000" stroke="none">
<path d="M240 8280 l0 -350 23 -1 22 0 -22 -11 -23 -11 0 -402 c0 -352 2 -406
16 -435 16 -30 16 -33 0 -42 -20 -11 -21 -48 -1 -48 22 0 38 -38 32 -76 -6
-37 15 -49 27 -17 6 14 9 15 16 4 4 -8 15 -11 24 -8 22 9 31 -11 13 -31 -29
-32 -25 -75 8 -104 22 -19 25 -29 22 -80 -1 -34 3 -62 9 -66 16 -11 27 -75 11
-69 -51 19 -54 18 -61 -13 l-6 -31 -42 29 c-68 46 -68 46 -68 18 0 -18 14 -36
55 -67 30 -24 52 -45 50 -48 -7 -6 -85 32 -85 42 0 4 -4 7 -10 7 -7 0 -10
-275 -10 -804 l0 -805 34 6 c19 3 36 1 40 -6 4 -7 -8 -13 -34 -17 l-40 -7 0
-2418 0 -2419 1850 0 1850 0 0 4315 0 4315 -1850 0 -1850 0 0 -350z m1178 -55
c-3 -3 -32 -12 -64 -21 -78 -20 -96 -38 -29 -30 91 12 107 10 175 -20 3 -1 15
-5 26 -9 12 -4 27 -17 34 -30 7 -13 25 -32 41 -44 49 -36 71 -102 74 -221 1
-58 -2 -110 -7 -117 -13 -16 -1 -34 17 -26 11 4 15 -3 15 -25 0 -32 -24 -50
-44 -33 -14 11 -75 -15 -83 -36 -3 -7 -10 -13 -15 -13 -6 0 -8 7 -4 15 7 20
-63 55 -202 101 l-107 35 -99 -11 c-54 -6 -109 -15 -122 -20 -15 -6 -26 -5
-30 1 -3 6 -19 7 -35 4 -22 -5 -29 -3 -29 8 0 9 -5 17 -11 19 -7 2 -12 31 -12
74 -1 60 2 73 22 93 13 13 21 31 18 41 -3 11 7 28 24 45 16 15 26 31 23 36 -3
5 -2 8 3 7 18 -5 83 25 83 38 0 34 -10 32 -395 -60 -104 -24 -232 -57 -283
-71 -52 -14 -99 -24 -105 -22 -7 2 15 11 48 21 33 9 98 28 145 43 47 15 90 28
95 29 83 20 173 48 183 57 8 6 19 12 26 14 42 10 134 35 146 40 8 3 26 8 40
10 14 2 45 10 70 18 25 8 48 14 51 12 3 -1 13 4 22 12 9 7 24 11 32 7 8 -3 15
0 15 6 0 6 2 9 5 6 3 -3 27 1 53 8 45 12 201 19 190 9z m839 -52 c68 -182 132
-367 128 -371 -8 -8 -10 -4 -48 108 -30 91 -70 199 -97 265 -16 38 -19 55 -12
55 4 0 17 -26 29 -57z m-1687 37 c-20 -13 -43 -13 -35 0 3 6 16 10 28 10 18 0
19 -2 7 -10z m1218 -15 c-3 -3 -9 2 -12 12 -6 14 -5 15 5 6 7 -7 10 -15 7 -18z
m-1288 -5 c0 -5 -4 -10 -10 -10 -5 0 -10 5 -10 10 0 6 5 10 10 10 6 0 10 -4
10 -10z m1347 -123 c-3 -9 -57 95 -57 110 0 4 14 -16 30 -46 17 -30 29 -59 27
-64z m27 -53 c3 -8 2 -12 -4 -9 -6 3 -10 10 -10 16 0 14 7 11 14 -7z m-604
-434 c36 -6 93 -20 128 -31 l62 -21 36 31 c19 17 39 31 44 31 14 0 12 -20 -2
-24 -48 -14 -52 -17 -40 -25 10 -6 3 -13 -22 -25 -39 -18 -66 -51 -66 -78 0
-9 -11 -28 -25 -42 -15 -15 -22 -31 -19 -41 4 -11 2 -14 -9 -10 -16 7 -33 -37
-22 -56 4 -5 -3 -23 -15 -39 -21 -30 -20 -50 3 -50 7 0 18 -4 25 -8 19 -13
-21 -87 -55 -101 -25 -10 -30 -20 -39 -67 -8 -45 -7 -59 5 -77 21 -30 20 -59
-4 -79 -11 -10 -16 -17 -12 -18 4 0 -1 -10 -13 -22 -11 -12 -20 -27 -20 -32 0
-7 -29 -11 -78 -10 -96 1 -105 2 -97 13 3 5 -9 20 -27 33 -120 85 -132 104
-147 243 -8 71 -4 89 36 172 10 20 14 45 10 67 -3 20 -1 38 5 42 5 3 8 17 5
30 -2 13 3 31 12 42 20 23 29 53 10 35 -7 -7 -19 -13 -26 -13 -7 0 1 18 20 44
60 82 174 111 337 86z m355 -20 c-10 -11 -20 -18 -23 -15 -7 6 18 35 31 35 5
0 2 -9 -8 -20z m105 -305 c0 -8 -4 -15 -10 -15 -5 0 -10 7 -10 15 0 8 5 15 10
15 6 0 10 -7 10 -15z m-37 -23 c-11 -31 -23 -39 -48 -34 -36 6 -39 18 -10 40
29 23 67 19 58 -6z m-326 -8 c-3 -3 -12 -4 -19 -1 -8 3 -5 6 6 6 11 1 17 -2
13 -5z m1398 -124 c1 0 18 -23 39 -50 l38 -50 4 -143 c1 -78 10 -177 18 -220
21 -103 20 -282 -2 -479 -18 -156 -26 -188 -38 -152 -3 10 -11 30 -17 44 -6
14 -11 34 -12 45 -1 11 -4 29 -8 40 -3 11 -9 36 -12 55 -3 19 -18 68 -32 109
-27 79 -28 75 29 106 34 19 47 62 46 155 0 41 3 87 7 102 5 21 2 32 -18 50
-139 129 -184 181 -181 208 0 8 2 20 2 26 1 7 13 15 26 18 25 6 39 45 25 68
-14 22 -10 60 8 73 11 9 26 10 47 4 17 -5 31 -9 31 -9z m-2375 -138 c0 -7 -4
-10 -10 -7 -5 3 -10 16 -10 28 0 18 2 19 10 7 5 -8 10 -21 10 -28z m2740 -47
c0 -8 -4 -15 -10 -15 -5 0 -10 7 -10 15 0 8 5 15 10 15 6 0 10 -7 10 -15z
m-2737 -107 c-7 -38 -21 -27 -15 12 2 17 8 28 12 23 5 -4 6 -20 3 -35z m44
-175 c-16 -16 -17 -16 -17 3 0 26 11 37 24 24 7 -7 5 -16 -7 -27z m948 -49 c8
-11 9 -32 4 -63 -12 -74 -11 -111 5 -111 30 0 29 -77 -5 -391 -10 -89 -13 -97
-32 -97 -12 0 -41 -5 -65 -11 -23 -7 -47 -9 -52 -6 -5 3 -11 1 -15 -5 -11 -17
-31 -11 -31 10 0 13 9 21 28 25 15 4 28 12 28 18 0 8 4 7 9 -2 7 -10 21 -12
56 -7 l47 8 -7 76 c-9 88 -8 503 1 545 6 31 12 33 29 11z m-855 -122 c0 -44
-13 -82 -24 -71 -3 2 -1 22 4 44 5 22 6 51 3 64 -4 17 -2 22 6 17 6 -4 11 -28
11 -54z m730 28 c0 -11 -7 -20 -15 -20 -15 0 -21 21 -8 33 12 13 23 7 23 -13z
m2150 -105 c11 -13 8 -15 -21 -15 -32 1 -33 1 -15 15 24 18 21 18 36 0z m0
-54 c0 -18 -18 -21 -30 -6 -10 13 -9 15 9 15 11 0 21 -4 21 -9z m-1117 -70
c23 -39 21 -51 -5 -51 -23 0 -58 26 -58 45 0 14 21 35 35 35 6 0 18 -13 28
-29z m1041 -13 c20 -39 12 -49 -16 -21 -12 13 -18 28 -15 37 9 23 13 20 31
-16z m-353 -88 c11 0 12 -33 0 -45 -4 -6 -6 -63 -3 -128 4 -114 5 -117 26
-111 17 5 19 4 9 -7 -13 -13 -82 -15 -93 -2 -13 15 -29 89 -35 158 -4 44 -3
65 3 57 7 -10 12 -6 21 16 7 16 11 33 10 38 -4 11 11 86 19 98 3 6 12 -9 20
-32 7 -23 18 -42 23 -42z m794 41 c-4 -17 -11 -34 -17 -37 -10 -6 -2 49 9 69
10 17 15 -2 8 -32z m-365 15 c0 -3 -4 -8 -10 -11 -5 -3 -10 -1 -10 4 0 6 5 11
10 11 6 0 10 -2 10 -4z m-2080 -113 c-1 -24 -2 -26 -11 -10 -5 9 -7 22 -4 27
10 17 15 11 15 -17z m0 -76 c0 -5 -4 -5 -10 -2 -5 3 -12 -6 -16 -20 -3 -14
-13 -25 -23 -25 -13 0 -14 2 -2 9 9 6 15 26 15 50 1 41 1 41 18 18 10 -12 18
-26 18 -30z m2398 -7 c12 -21 22 -46 22 -55 0 -28 -37 16 -48 58 -13 48 -3 47
26 -3z m-295 23 c-7 -2 -19 -2 -25 0 -7 3 -2 5 12 5 14 0 19 -2 13 -5z m-2205
-60 c-10 -2 -26 -2 -35 0 -10 3 -2 5 17 5 19 0 27 -2 18 -5z m2269 -139 c-3
-3 -12 -4 -19 -1 -8 3 -5 6 6 6 11 1 17 -2 13 -5z m-3061 -839 c-11 -8 -25
-15 -30 -15 -6 1 0 7 14 15 32 19 40 18 16 0z m340 -1679 c26 -19 11 -31 -39
-31 -40 0 -42 -2 -45 -31 -4 -42 20 -62 58 -47 23 9 32 8 40 -2 21 -25 -58
-47 -105 -29 -24 10 -46 60 -39 89 13 54 86 82 130 51z m374 -11 c0 -8 7 -15
15 -15 8 0 15 -7 15 -15 0 -8 -7 -15 -15 -15 -24 0 -20 -56 5 -63 30 -8 24
-27 -8 -27 -37 0 -52 17 -52 57 0 18 -4 33 -10 33 -5 0 -10 7 -10 15 0 8 5 15
10 15 6 0 10 7 10 15 0 8 9 15 20 15 11 0 20 -7 20 -15z m360 0 c0 -8 7 -15
15 -15 8 0 15 -7 15 -15 0 -8 -7 -15 -15 -15 -24 0 -20 -56 5 -63 30 -8 24
-27 -8 -27 -37 0 -52 17 -52 57 0 35 -5 39 -30 23 -9 -5 -19 -5 -27 2 -20 16
-45 1 -41 -24 2 -19 9 -23 35 -21 35 3 54 -14 32 -28 -23 -14 -71 -10 -91 8
-24 21 -23 65 2 88 15 14 29 16 66 11 40 -5 47 -3 51 14 6 23 43 27 43 5z
m-604 -23 c37 -24 36 -91 -1 -106 -74 -28 -138 41 -88 96 16 18 68 24 89 10z
m161 -4 c7 -6 13 -32 13 -59 0 -42 -3 -49 -20 -49 -17 0 -20 7 -20 39 0 22 -5
43 -10 46 -19 12 -40 -16 -40 -51 0 -27 -4 -34 -20 -34 -18 0 -20 7 -20 59 l0
59 52 0 c29 1 58 -4 65 -10z m231 0 c7 -7 12 -34 12 -60 l0 -48 -49 0 c-57 0
-79 17 -61 49 7 14 21 21 40 21 17 0 30 5 30 11 0 7 -11 9 -30 6 -30 -6 -46 5
-35 23 9 14 78 13 93 -2z m360 -5 c-2 -13 -11 -17 -33 -15 -33 4 -25 -13 9
-20 10 -1 24 -10 29 -20 18 -27 -9 -48 -60 -48 -37 0 -44 3 -41 18 2 13 12 16
38 15 l35 -3 -35 14 c-63 23 -48 76 22 76 32 0 39 -3 36 -17z m-926 -398 c-1
-5 -10 -10 -20 -11 -40 -2 -43 -5 -40 -26 3 -20 9 -23 48 -23 57 0 69 -19 15
-23 -60 -3 -84 5 -91 34 -9 35 21 66 60 62 17 -2 30 -7 28 -13z m508 -2 c0
-12 -3 -14 -8 -7 -4 7 -18 14 -32 17 -21 4 -20 4 8 6 24 1 32 -3 32 -16z m70
13 c0 -2 -8 -10 -17 -17 -16 -13 -17 -12 -4 4 13 16 21 21 21 13z m94 -5 c4
-5 -3 -7 -14 -4 -23 6 -26 13 -6 13 8 0 17 -4 20 -9z m86 -6 c11 -13 9 -20
-15 -45 l-27 -28 28 -5 c24 -3 22 -4 -10 -6 l-40 -1 32 33 c38 39 39 45 10 57
-16 6 -18 9 -7 9 9 1 22 -6 29 -14z m118 3 c7 -7 12 -24 12 -38 0 -32 -17 -50
-44 -49 -18 1 -17 2 4 8 21 6 25 13 25 41 0 28 -4 35 -20 35 -29 0 -32 -32 -3
-38 l23 -4 -23 -2 c-27 -1 -39 23 -22 44 15 18 32 19 48 3z m72 8 c0 -2 -9 -6
-20 -9 -11 -3 -18 -1 -14 4 5 9 34 13 34 5z m98 -8 c7 -7 12 -24 12 -38 0 -32
-17 -50 -44 -49 -18 1 -17 2 4 8 21 6 25 13 25 41 0 28 -4 35 -20 35 -29 0
-32 -32 -3 -38 l23 -4 -23 -2 c-27 -1 -39 23 -22 44 15 18 32 19 48 3z m131
-2 c17 -20 10 -67 -11 -79 -23 -15 -48 8 -48 42 0 45 35 66 59 37z m88 8 c-3
-3 -12 -4 -19 -1 -8 3 -5 6 6 6 11 1 17 -2 13 -5z m87 -3 c4 -5 -3 -7 -14 -4
-23 6 -26 13 -6 13 8 0 17 -4 20 -9z m-1096 -30 c-13 -15 -25 -27 -27 -25 -4
4 39 54 47 54 2 0 -7 -13 -20 -29z m90 -1 c-22 -30 -35 -41 -22 -17 9 16 36
47 41 47 2 0 -6 -13 -19 -30z m623 -32 c-10 -21 -11 -22 -6 -2 5 18 2 21 -19
17 -13 -3 -26 -1 -30 5 -3 5 5 7 19 4 21 -4 25 0 26 19 l0 24 11 -22 c8 -17 8
-29 -1 -45z m251 40 c-3 -14 -2 -19 7 -14 21 13 52 -4 49 -27 -3 -25 -32 -34
-53 -17 -15 13 -20 61 -8 73 10 11 11 8 5 -15z m-1177 2 c3 -6 -1 -13 -10 -16
-19 -8 -30 0 -20 15 8 14 22 14 30 1z m145 -20 c4 -3 2 -10 -4 -16 -9 -8 -15
-7 -24 3 -8 8 -9 13 -2 13 5 0 10 8 11 18 0 13 2 14 6 2 3 -8 9 -17 13 -20z
m497 -12 c-3 -7 -5 -2 -5 12 0 14 2 19 5 13 2 -7 2 -19 0 -25z m680 0 c-3 -7
-5 -2 -5 12 0 14 2 19 5 13 2 -7 2 -19 0 -25z m-1080 -25 c-3 -10 -5 -2 -5 17
0 19 2 27 5 18 2 -10 2 -26 0 -35z m90 0 c-3 -10 -5 -2 -5 17 0 19 2 27 5 18
2 -10 2 -26 0 -35z m173 43 c0 -2 -8 -10 -17 -17 -16 -13 -17 -12 -4 4 13 16
21 21 21 13z m106 -43 c13 2 21 0 18 -4 -17 -27 -65 6 -63 43 0 7 5 0 11 -15
8 -23 15 -28 34 -24z m680 0 c13 2 21 0 18 -4 -17 -27 -65 6 -63 43 0 7 5 0
11 -15 8 -23 15 -28 34 -24z m-855 0 c-12 -20 -14 -14 -5 12 4 9 9 14 11 11 3
-2 0 -13 -6 -23z m109 17 c0 -5 -4 -10 -10 -10 -5 0 -10 5 -10 10 0 6 5 10 10
10 6 0 10 -4 10 -10z m353 -27 c-7 -2 -19 -2 -25 0 -7 3 -2 5 12 5 14 0 19 -2
13 -5z m-943 -303 c0 -5 -11 -10 -25 -10 -14 0 -25 -4 -25 -10 0 -5 9 -10 20
-10 11 0 20 -4 20 -10 0 -5 -9 -10 -20 -10 -11 0 -20 -4 -20 -10 0 -5 11 -10
25 -10 14 0 25 -4 25 -10 0 -5 -18 -10 -40 -10 l-40 0 0 50 0 50 40 0 c22 0
40 -4 40 -10z m210 -38 c0 -48 0 -49 -32 -48 -17 1 -32 7 -34 14 -1 7 0 8 3 2
7 -15 43 -12 49 5 4 8 0 23 -7 32 -10 12 -10 15 -1 9 8 -5 12 0 12 13 0 12 2
21 5 21 3 0 5 -22 5 -48z m190 0 c0 -48 0 -49 -32 -48 -17 1 -32 7 -34 14 -1
7 0 8 3 2 7 -15 43 -12 49 5 4 8 0 23 -7 32 -10 12 -10 15 -1 9 8 -5 12 0 12
13 0 12 2 21 5 21 3 0 5 -22 5 -48z m203 18 c9 0 9 -2 0 -8 -6 -4 -13 -21 -16
-37 -2 -17 -4 -5 -4 25 -1 30 1 47 4 38 2 -10 10 -18 16 -18z m300 23 c-7 -2
-19 -2 -25 0 -7 3 -2 5 12 5 14 0 19 -2 13 -5z m444 -70 c-2 -16 -4 -3 -4 27
0 30 2 43 4 28 2 -16 2 -40 0 -55z m-487 63 c0 -2 -8 -10 -17 -17 -16 -13 -17
-12 -4 4 13 16 21 21 21 13z m-822 -24 c2 -7 -3 -12 -12 -12 -9 0 -16 7 -16
16 0 17 22 14 28 -4z m228 -55 c9 -3 8 -4 -3 -3 -13 1 -19 11 -20 34 -3 31 -3
31 3 3 3 -17 12 -32 20 -34z m31 11 c-2 -13 -4 -5 -4 17 -1 22 1 32 4 23 2
-10 2 -28 0 -40z m213 37 c-16 -20 -6 -42 22 -48 23 -5 23 -5 -1 -4 -32 3 -49
30 -32 51 8 9 16 16 18 16 3 0 0 -7 -7 -15z m130 5 c0 -5 -2 -10 -4 -10 -3 0
-8 5 -11 10 -3 6 -1 10 4 10 6 0 11 -4 11 -10z m38 -15 c-3 -3 -9 2 -12 12 -6
14 -5 15 5 6 7 -7 10 -15 7 -18z m85 18 c-7 -2 -14 -17 -14 -31 -1 -18 -3 -21
-6 -9 -6 24 3 47 19 46 10 0 10 -2 1 -6z m45 -17 c5 -22 -15 -46 -37 -45 -11
0 -9 3 7 9 22 10 30 44 12 53 -6 3 -5 4 2 3 7 -1 14 -10 16 -20z m105 17 c3
-5 -8 -8 -23 -8 -15 0 -26 3 -23 8 2 4 13 7 23 7 10 0 21 -3 23 -7z m78 -2
c-8 -5 -12 -18 -8 -30 3 -12 1 -19 -4 -15 -20 12 -8 54 15 54 6 0 5 -4 -3 -9z
m49 -1 c0 -5 -2 -10 -4 -10 -3 0 -8 5 -11 10 -3 6 -1 10 4 10 6 0 11 -4 11
-10z m52 -2 c-5 -7 -12 -24 -15 -38 -3 -18 -5 -15 -6 13 -1 28 3 37 15 37 12
0 14 -3 6 -12z m61 5 c-7 -3 -14 -19 -14 -36 l-2 -32 -4 30 c-3 16 -9 33 -15
36 -6 4 3 6 18 6 16 0 23 -2 17 -4z m37 -28 c0 -19 -2 -35 -4 -35 -2 0 -6 16
-8 35 -2 19 0 35 4 35 4 0 8 -16 8 -35z m90 -4 c0 -24 -4 -28 -27 -27 -39 1
-46 36 -8 36 20 0 26 4 21 16 -3 8 -2 12 4 9 6 -3 10 -19 10 -34z m27 -13 c-2
-13 -4 -5 -4 17 -1 22 1 32 4 23 2 -10 2 -28 0 -40z m196 45 c-7 -2 -14 -17
-14 -31 -1 -18 -3 -21 -6 -9 -6 24 3 47 19 46 10 0 10 -2 1 -6z m45 -17 c5
-22 -15 -46 -37 -45 -11 0 -9 3 7 9 22 10 30 44 12 53 -6 3 -5 4 2 3 7 -1 14
-10 16 -20z m44 12 c-5 -7 -12 -24 -15 -38 -3 -18 -5 -15 -6 13 -1 28 3 37 15
37 12 0 14 -3 6 -12z m61 5 c-7 -3 -14 -19 -14 -36 l-2 -32 -4 30 c-3 16 -9
33 -15 36 -6 4 3 6 18 6 16 0 23 -2 17 -4z m37 -28 c0 -19 -2 -35 -4 -35 -2 0
-6 16 -8 35 -2 19 0 35 4 35 4 0 8 -16 8 -35z m-970 7 c0 -5 -6 -16 -13 -26
-13 -17 -14 -18 -20 -2 -4 10 -3 15 3 11 6 -3 13 1 16 9 7 17 14 21 14 8z
m722 -33 c18 -1 19 -2 5 -6 -22 -6 -47 14 -46 36 0 11 3 9 9 -6 6 -14 19 -23
32 -24z m-978 7 c-3 -9 -10 -13 -15 -10 -5 3 -3 11 4 19 15 16 19 13 11 -9z
m-426 -4 c2 -7 -3 -12 -12 -12 -9 0 -16 7 -16 16 0 17 22 14 28 -4z m992 -2
c-24 -15 -36 -11 -14 4 10 8 21 12 24 10 2 -3 -2 -9 -10 -14z m-94 -2 c2 -3
-12 -5 -31 -6 -19 -1 -36 2 -39 6 -4 8 62 7 70 0z m-87 -12 c11 -12 -16 -14
-186 -13 l-198 1 188 3 c119 2 186 7 182 13 -9 15 1 12 14 -4z m-521 -13 c-38
-2 -98 -2 -135 0 -38 2 -7 3 67 3 74 0 105 -1 68 -3z m117 -3 c-3 -5 -12 -10
-18 -10 -7 0 -6 4 3 10 19 12 23 12 15 0z m512 4 c-3 -3 -12 -4 -19 -1 -8 3
-5 6 6 6 11 1 17 -2 13 -5z m54 -12 c-7 -2 -18 1 -23 6 -8 8 -4 9 13 5 13 -4
18 -8 10 -11z m532 11 c-89 -2 -237 -2 -330 0 -92 1 -19 3 162 3 182 0 257 -2
168 -3z m-640 -10 c-7 -2 -19 -2 -25 0 -7 3 -2 5 12 5 14 0 19 -2 13 -5z m-45
-552 c-2 -9 -11 -17 -21 -19 -21 -4 -35 27 -17 38 19 12 42 0 38 -19z m-508
-9 c0 -26 3 -28 30 -24 44 6 60 -12 60 -69 0 -42 -3 -49 -20 -49 -17 0 -20 7
-20 39 0 22 -5 43 -10 46 -19 12 -40 -16 -40 -51 0 -27 -4 -34 -20 -34 -18 0
-20 7 -20 85 0 78 2 85 20 85 15 0 20 -7 20 -28z m360 -19 l0 -46 23 21 c13
12 34 22 47 22 l24 0 -26 -27 -27 -28 26 -30 26 -30 -24 -3 c-16 -3 -28 3 -37
17 -18 27 -32 27 -32 1 0 -13 -7 -20 -20 -20 -18 0 -20 7 -20 85 0 78 2 85 20
85 17 0 20 -7 20 -47z m210 -38 c0 -78 -2 -85 -20 -85 -18 0 -20 7 -20 85 0
78 2 85 20 85 18 0 20 -7 20 -85z m68 -3 c3 -77 2 -82 -18 -82 -19 0 -20 6
-20 86 0 76 2 85 18 82 14 -3 17 -16 20 -86z m-940 56 c3 -13 -3 -18 -22 -18
-25 0 -26 -2 -26 -60 0 -53 -2 -60 -20 -60 -18 0 -20 7 -20 60 0 57 -1 60 -25
60 -19 0 -25 5 -25 20 0 19 5 21 67 18 55 -2 68 -6 71 -20z m576 16 c9 -3 16
-13 16 -21 0 -12 -7 -14 -28 -10 -15 3 -34 2 -42 -3 -11 -7 -2 -14 33 -29 37
-16 47 -25 47 -44 0 -36 -22 -49 -77 -45 -35 2 -48 7 -48 18 0 12 10 14 44 12
50 -4 55 17 7 29 -15 4 -34 13 -42 20 -46 38 27 97 90 73z m-468 -60 c16 -24
18 -24 27 -7 15 26 28 33 63 33 34 0 67 -26 43 -34 -8 -3 -25 -4 -39 -3 -20 2
-25 -3 -25 -23 0 -20 5 -25 25 -23 41 3 54 -5 40 -22 -24 -29 -110 -12 -110
20 0 11 -13 15 -51 15 -33 0 -48 -4 -44 -11 4 -5 17 -9 28 -7 26 3 50 -10 42
-23 -10 -15 -77 -10 -97 8 -10 9 -18 27 -18 41 0 61 83 87 116 36z m694 -34
c0 -53 -2 -60 -20 -60 -18 0 -20 7 -20 60 0 53 2 60 20 60 18 0 20 -7 20 -60z
m253 54 c14 -15 -6 -30 -36 -27 -26 3 -28 2 -12 -6 11 -5 28 -12 38 -15 22 -7
23 -52 1 -60 -20 -8 -79 -8 -87 0 -15 15 6 30 36 26 l32 -4 -34 19 c-41 22
-47 35 -26 57 16 15 75 22 88 10z m-993 -414 c0 -15 7 -20 25 -20 18 0 25 5
25 20 0 11 5 20 10 20 6 0 10 -22 10 -50 0 -27 -4 -50 -10 -50 -5 0 -10 9 -10
20 0 15 -7 20 -25 20 -18 0 -25 -5 -25 -20 0 -11 -4 -20 -10 -20 -5 0 -10 23
-10 50 0 28 5 50 10 50 6 0 10 -9 10 -20z m153 13 c-20 -4 -23 -11 -25 -51
l-2 -47 -3 47 c-3 39 -8 47 -26 51 -12 2 1 4 28 4 28 0 40 -2 28 -4z m62 -34
c9 -26 18 -24 38 11 26 43 37 37 37 -20 0 -27 -4 -50 -10 -50 -5 0 -10 15 -10
33 l-1 32 -17 -27 c-9 -16 -19 -28 -23 -28 -3 0 -12 12 -19 28 l-14 27 -7 -35
c-6 -31 -6 -30 -8 19 -1 46 1 52 14 41 8 -6 17 -20 20 -31z m115 -4 l0 -45 52
3 c56 2 76 22 34 33 -19 4 -26 13 -26 30 0 21 5 24 33 23 29 -1 29 -2 8 -8
-30 -8 -40 -31 -13 -31 11 0 25 -7 32 -15 23 -27 -4 -43 -76 -44 l-64 0 0 49
c0 28 5 50 10 50 6 0 10 -20 10 -45z m-481 -21 c-9 -11 -15 -12 -25 -3 -11 9
-12 15 -3 25 9 11 15 12 25 3 11 -9 12 -15 3 -25z m211 -184 c13 -7 21 -7 25
0 8 13 52 13 60 1 3 -6 -7 -9 -21 -8 -38 3 -40 -16 -3 -30 21 -8 30 -17 27
-30 -3 -15 -15 -18 -73 -20 -52 -1 -74 2 -87 14 -22 20 -22 32 -2 61 16 24 44
28 74 12z m170 0 c0 -5 -10 -9 -21 -7 -12 1 -24 -4 -26 -10 -3 -7 2 -13 11
-13 8 0 27 -11 42 -25 15 -14 33 -25 40 -25 22 0 27 21 8 35 -15 11 -16 15 -5
28 10 13 8 16 -16 20 -23 3 -22 4 10 6 36 1 49 -11 26 -24 -7 -5 -5 -13 6 -25
30 -33 10 -48 -66 -48 -38 0 -71 4 -74 9 -4 5 7 6 25 3 23 -5 30 -3 30 10 0 9
-8 16 -19 16 -24 0 -45 25 -37 45 6 17 66 21 66 5z m-381 -56 c-9 -11 -15 -12
-25 -3 -11 9 -12 15 -3 25 9 11 15 12 25 3 11 -9 12 -15 3 -25z m256 -174 c3
-5 1 -10 -4 -10 -6 0 -11 5 -11 10 0 6 2 10 4 10 3 0 8 -4 11 -10z m305 -15
c0 -8 7 -11 18 -8 24 6 44 -19 40 -49 -2 -19 -10 -24 -40 -26 l-38 -3 0 56 c0
35 4 54 10 50 6 -3 10 -12 10 -20z m-344 3 c5 -8 0 -9 -16 -5 -46 12 -79 -30
-48 -61 19 -19 48 -15 48 8 0 11 5 20 11 20 6 0 9 -10 7 -22 -4 -30 -52 -37
-79 -12 -23 21 -24 33 -3 62 16 24 67 31 80 10z m134 -8 c0 -31 57 -28 63 3 2
12 4 -3 4 -33 0 -30 -2 -45 -4 -32 -6 30 -63 33 -63 2 0 -11 -4 -20 -10 -20
-5 0 -10 23 -10 50 0 28 5 50 10 50 6 0 10 -9 10 -20z m-40 -11 c0 -5 -4 -9
-10 -9 -17 0 -11 -38 8 -49 15 -9 15 -10 -4 -11 -18 0 -23 7 -27 38 -2 20 -2
40 0 44 5 9 33 -2 33 -13z m-50 -35 c0 -19 -4 -34 -10 -34 -5 0 -10 18 -10 41
0 24 4 38 10 34 6 -3 10 -22 10 -41z m220 -19 c10 0 16 12 18 33 5 46 22 40
22 -9 0 -39 -1 -40 -32 -37 -31 3 -33 6 -35 43 l-1 40 6 -35 c4 -22 13 -35 22
-35z m-481 19 c-9 -11 -15 -12 -25 -3 -11 9 -12 15 -3 25 9 11 15 12 25 3 11
-9 12 -15 3 -25z m676 -174 c3 -5 -1 -10 -10 -10 -9 0 -13 5 -10 10 3 6 8 10
10 10 2 0 7 -4 10 -10z m-497 -47 c-3 -44 -5 -48 -30 -51 -16 -2 -28 1 -28 6
0 6 9 8 20 5 18 -5 20 0 20 35 0 34 -4 41 -22 45 -16 3 -13 5 10 6 l33 1 -3
-47z m322 37 c0 -5 -10 -9 -21 -7 -34 3 -33 -17 2 -30 21 -8 30 -17 27 -30 -4
-21 -54 -31 -71 -14 -8 8 -3 10 21 5 25 -5 32 -3 32 10 0 9 -8 16 -19 16 -24
0 -45 25 -37 45 6 17 66 21 66 5z m320 -11 c11 -8 12 -12 3 -16 -7 -2 -13 -15
-13 -28 0 -13 6 -26 13 -29 6 -3 3 -5 -8 -3 -13 1 -21 13 -26 37 -10 49 0 61
31 39z m-576 -5 c10 -4 16 -18 16 -41 0 -33 -1 -34 -32 -31 -38 4 -46 31 -10
36 28 4 29 22 1 22 -11 0 -17 5 -14 10 7 12 17 12 39 4z m56 -36 c0 -18 20 -6
25 15 5 19 13 24 38 24 42 0 57 -13 57 -49 0 -27 -2 -29 -32 -26 -42 4 -54 38
-14 38 14 0 26 5 26 10 0 6 -13 10 -29 10 -22 0 -31 -6 -41 -30 -7 -16 -17
-30 -22 -30 -9 0 -38 61 -38 77 1 10 30 -28 30 -39z m274 36 c25 -9 19 -22 -8
-17 -27 6 -39 -7 -30 -32 5 -12 14 -15 33 -10 20 5 23 4 15 -5 -7 -6 -22 -10
-35 -8 -27 3 -38 40 -19 64 14 16 21 17 44 8z m66 -6 c0 -4 -4 -8 -10 -8 -5 0
-10 -13 -10 -30 0 -16 -4 -30 -10 -30 -5 0 -10 17 -10 38 0 31 4 38 20 38 11
0 20 -4 20 -8z m27 -50 c-2 -13 -4 -3 -4 22 0 25 2 35 4 23 2 -13 2 -33 0 -45z
m97 43 c23 -26 6 -61 -29 -61 -16 0 -25 -6 -25 -15 0 -8 -4 -15 -10 -15 -10 0
-15 92 -6 101 13 13 55 6 70 -10z m-765 -27 c-9 -11 -15 -12 -25 -3 -11 9 -12
15 -3 25 9 11 15 12 25 3 11 -9 12 -15 3 -25z m397 -197 c8 3 21 0 29 -7 17
-14 21 -70 5 -70 -5 0 -10 14 -10 31 0 24 -4 30 -17 27 -11 -2 -19 -14 -21
-31 -5 -46 -22 -30 -22 21 0 50 13 80 18 44 2 -14 8 -19 18 -15z m-190 8 c4
-8 10 -12 15 -9 5 3 15 -9 23 -26 l13 -32 12 30 c14 32 41 45 62 30 11 -7 11
-11 2 -15 -19 -7 -16 -40 5 -52 15 -9 15 -10 -5 -11 -19 0 -23 5 -23 30 0 42
-12 37 -38 -15 -19 -40 -52 -62 -52 -34 0 5 4 8 9 4 19 -11 21 15 5 46 -14 28
-18 30 -26 16 -5 -9 -20 -17 -33 -17 -16 0 -25 -6 -25 -15 0 -8 -4 -15 -10
-15 -5 0 -10 23 -10 50 l0 50 35 0 c22 0 38 -6 41 -15z m314 -19 c19 -23 8
-61 -18 -64 -44 -7 -67 32 -36 62 19 20 38 20 54 2z m87 2 c15 -12 18 -68 3
-68 -5 0 -10 14 -10 31 0 41 -32 36 -41 -6 -6 -28 -7 -27 -8 10 -1 35 2 41 21
42 12 1 28 -3 35 -9z m-608 -34 c-9 -11 -15 -12 -25 -3 -11 9 -12 15 -3 25 9
11 15 12 25 3 11 -9 12 -15 3 -25z m241 -174 c0 -5 -6 -10 -12 -10 -7 0 -21
-20 -31 -45 -11 -25 -23 -45 -28 -45 -11 0 -52 90 -44 98 6 6 7 6 27 -38 l16
-35 17 37 c10 20 25 39 34 41 9 3 17 5 19 6 1 0 2 -3 2 -9z m277 -72 c-2 -18
-4 -6 -4 27 0 33 2 48 4 33 2 -15 2 -42 0 -60z m338 72 c3 -5 1 -10 -4 -10 -6
0 -11 5 -11 10 0 6 2 10 4 10 3 0 8 -4 11 -10z m-198 -12 c5 -7 9 -29 9 -48
-1 -34 -2 -35 -43 -38 l-43 -3 0 50 0 51 34 0 c18 0 38 -6 43 -12z m-417 -48
c0 -22 -4 -40 -10 -40 -11 0 -14 63 -3 73 11 12 13 8 13 -33z m65 31 c3 -5 -5
-11 -17 -13 -22 -4 -22 -5 5 -16 16 -7 27 -18 25 -25 -6 -15 -68 -22 -68 -7 0
6 10 8 25 4 15 -4 25 -2 25 5 0 6 -6 11 -14 11 -22 0 -38 24 -24 38 14 14 35
16 43 3z m45 -32 c0 -45 33 -35 41 11 6 35 6 35 8 -8 1 -43 1 -43 -31 -40 -30
3 -33 6 -36 42 -2 25 0 36 7 31 6 -3 11 -20 11 -36z m128 29 c7 -7 12 -25 12
-41 0 -26 -3 -28 -32 -25 -42 4 -54 38 -14 38 14 0 26 5 26 10 0 6 -12 10 -27
10 -22 0 -25 2 -13 10 20 13 34 12 48 -2z m260 0 c7 -7 12 -25 12 -41 0 -26
-3 -28 -32 -25 -38 4 -46 31 -10 36 31 5 27 22 -5 22 -22 0 -25 2 -13 10 20
13 34 12 48 -2z m77 3 c3 -5 -5 -11 -17 -13 -22 -4 -22 -5 5 -16 16 -7 27 -18
25 -25 -6 -15 -68 -22 -68 -7 0 6 10 8 25 4 15 -4 25 -2 25 5 0 6 -9 11 -19
11 -26 0 -36 17 -21 35 14 17 36 20 45 6z m45 -37 c0 -19 -4 -34 -10 -34 -5 0
-10 18 -10 41 0 24 4 38 10 34 6 -3 10 -22 10 -41z m64 40 c26 -10 18 -22 -10
-16 -22 4 -25 2 -22 -19 2 -18 9 -23 26 -22 13 2 21 -1 17 -7 -3 -6 -17 -10
-30 -10 -33 0 -47 47 -20 67 22 15 19 15 39 7z m-925 -40 c-9 -11 -15 -12 -25
-3 -11 9 -12 15 -3 25 9 11 15 12 25 3 11 -9 12 -15 3 -25z"/>
<path d="M1310 7425 c0 -8 2 -15 4 -15 2 0 6 7 10 15 3 8 1 15 -4 15 -6 0 -10
-7 -10 -15z"/>
<path d="M1012 7390 c-6 -11 -12 -34 -11 -52 l1 -33 7 30 c4 17 13 40 20 53
15 27 1 30 -17 2z"/>
<path d="M1230 7342 c-42 -11 -109 -51 -119 -71 -11 -20 3 -41 27 -41 18 0 45
28 38 39 -9 13 22 41 45 41 23 0 25 -13 4 -30 -8 -7 -15 -19 -15 -26 0 -8 -5
-14 -11 -14 -7 0 -9 -10 -4 -27 11 -44 45 -54 45 -14 0 10 7 24 15 31 8 7 14
18 13 24 -2 6 10 24 25 39 16 15 27 33 24 40 -4 14 -50 18 -87 9z"/>
<path d="M844 3256 c-9 -24 4 -48 23 -44 12 2 18 12 18 28 0 29 -32 41 -41 16z"/>
<path d="M1235 3221 c-3 -5 -1 -12 5 -16 12 -7 30 2 30 16 0 12 -27 12 -35 0z"/>
<path d="M1864 2876 c-11 -28 0 -61 21 -61 16 0 20 7 20 35 0 25 -5 36 -18 38
-9 2 -20 -3 -23 -12z"/>
<path d="M1955 2841 c-9 -16 3 -31 26 -31 14 0 19 6 17 17 -4 20 -33 29 -43
14z"/>
<path d="M1960 2430 c0 -5 6 -10 14 -10 8 0 18 5 21 10 3 6 -3 10 -14 10 -12
0 -21 -4 -21 -10z"/>
<path d="M815 1760 c-4 -6 5 -10 20 -10 15 0 24 4 20 10 -3 6 -12 10 -20 10
-8 0 -17 -4 -20 -10z"/>
<path d="M848 1139 c-21 -12 -24 -44 -5 -56 17 -10 126 -12 133 -2 3 5 -7 14
-22 19 -15 6 -32 17 -38 24 -16 20 -48 27 -68 15z"/>
<path d="M1250 860 c0 -24 29 -38 40 -20 12 19 1 40 -21 40 -12 0 -19 -7 -19
-20z"/>
<path d="M900 600 c0 -5 6 -10 14 -10 8 0 18 5 21 10 3 6 -3 10 -14 10 -12 0
-21 -4 -21 -10z"/>
<path d="M1060 600 c0 -5 4 -10 9 -10 6 0 13 5 16 10 3 6 -1 10 -9 10 -9 0
-16 -4 -16 -10z"/>
<path d="M1404 625 c-4 -9 -2 -21 4 -27 15 -15 44 -1 40 19 -4 23 -36 29 -44
8z"/>
<path d="M840 405 c0 -26 7 -29 34 -19 21 8 21 30 0 38 -27 10 -34 7 -34 -19z"/>
<path d="M1162 378 c4 -27 33 -36 42 -13 8 22 -1 35 -25 35 -15 0 -20 -6 -17
-22z"/>
<path d="M1290 176 c0 -11 9 -16 26 -16 31 0 28 23 -4 28 -15 2 -22 -2 -22
-12z"/>
<path d="M1290 125 c0 -9 9 -15 25 -15 16 0 25 6 25 15 0 9 -9 15 -25 15 -16
0 -25 -6 -25 -15z"/>
<path d="M1130 120 c0 -5 4 -10 9 -10 6 0 13 5 16 10 3 6 -1 10 -9 10 -9 0
-16 -4 -16 -10z"/>
<path d="M1390 120 c0 -5 7 -10 15 -10 8 0 15 5 15 10 0 6 -7 10 -15 10 -8 0
-15 -4 -15 -10z"/>
<path d="M4850 7380 c0 -27 5 -50 10 -50 6 0 10 9 10 19 0 14 8 21 28 24 l27
4 -27 2 c-36 1 -39 31 -3 31 14 0 25 5 25 10 0 6 -16 10 -35 10 l-35 0 0 -50z"/>
<path d="M5380 7380 c0 -27 5 -50 10 -50 6 0 10 9 10 19 0 12 8 21 23 24 l22
4 -22 2 c-32 2 -30 31 2 31 14 0 25 5 25 10 0 6 -16 10 -35 10 l-35 0 0 -50z"/>
<path d="M5560 7380 c0 -27 5 -50 10 -50 6 0 10 23 10 50 0 28 -4 50 -10 50
-5 0 -10 -22 -10 -50z"/>
<path d="M5613 7380 c0 -30 2 -43 4 -27 2 15 2 39 0 55 -2 15 -4 2 -4 -28z"/>
<path d="M5950 7380 c0 -50 12 -66 25 -32 6 16 7 16 16 0 6 -10 17 -18 26 -18
14 0 14 2 -2 20 -15 16 -15 22 -5 35 10 12 10 15 -2 15 -8 0 -19 -5 -26 -12
-9 -9 -12 -6 -12 15 0 15 -4 27 -10 27 -5 0 -10 -22 -10 -50z"/>
<path d="M6080 7380 l0 -50 34 0 c61 0 88 53 44 84 -12 9 -35 16 -50 16 -27 0
-28 -2 -28 -50z m75 0 c0 -20 -6 -26 -27 -28 -25 -3 -28 0 -28 28 0 28 3 31
28 28 21 -2 27 -8 27 -28z"/>
<path d="M6463 7380 c0 -30 2 -43 4 -27 2 15 2 39 0 55 -2 15 -4 2 -4 -28z"/>
<path d="M5038 7408 c-8 -25 7 -73 25 -76 9 -2 17 1 17 7 0 6 -4 11 -10 11 -5
0 -10 9 -10 20 0 11 5 20 11 20 6 0 4 7 -5 15 -18 18 -23 19 -28 3z"/>
<path d="M5718 7408 c-8 -22 12 -78 27 -78 8 0 15 5 15 10 0 6 -4 10 -10 10
-5 0 -10 9 -10 20 0 11 5 20 11 20 6 0 4 7 -5 15 -18 18 -23 19 -28 3z"/>
<path d="M4942 7368 c3 -29 7 -33 36 -35 30 -1 32 1 32 33 0 19 -4 34 -10 34
-5 0 -10 -11 -10 -25 0 -16 -6 -25 -15 -25 -9 0 -15 9 -15 25 0 14 -5 25 -11
25 -6 0 -9 -14 -7 -32z"/>
<path d="M5103 7370 c2 -32 5 -35 35 -37 30 -1 32 1 32 33 0 19 -4 34 -10 34
-5 0 -10 -12 -10 -26 0 -33 -31 -29 -41 6 -7 21 -8 19 -6 -10z"/>
<path d="M5190 7365 c0 -19 5 -35 10 -35 6 0 10 11 10 25 0 13 8 29 18 34 14
9 13 10 -10 11 -25 0 -28 -3 -28 -35z"/>
<path d="M5254 7386 c-11 -29 1 -51 29 -54 16 -2 27 2 27 8 0 7 -7 10 -15 7
-8 -4 -17 -2 -20 3 -4 6 6 10 20 10 20 0 26 4 23 18 -4 22 -56 29 -64 8z m46
-6 c0 -5 -7 -10 -15 -10 -8 0 -15 5 -15 10 0 6 7 10 15 10 8 0 15 -4 15 -10z"/>
<path d="M5473 7370 c2 -32 5 -35 35 -37 30 -1 32 1 32 33 0 19 -4 34 -10 34
-5 0 -10 -12 -10 -26 0 -33 -31 -29 -41 6 -7 21 -8 19 -6 -10z"/>
<path d="M5645 7390 c-9 -15 4 -30 26 -30 11 0 17 -5 14 -10 -4 -6 -16 -8 -27
-4 -14 4 -18 2 -14 -5 10 -16 41 -14 56 4 10 12 7 17 -16 26 l-29 12 25 7 25
8 -27 1 c-15 1 -30 -3 -33 -9z"/>
<path d="M5795 7393 c34 -8 41 -23 11 -23 -21 0 -27 -4 -24 -17 5 -26 68 -28
68 -3 0 37 -12 50 -44 49 -21 -1 -24 -3 -11 -6z m30 -43 c-3 -5 -10 -10 -16
-10 -5 0 -9 5 -9 10 0 6 7 10 16 10 8 0 12 -4 9 -10z"/>
<path d="M5874 7386 c-15 -40 30 -76 59 -47 8 8 4 11 -15 11 -15 0 -29 4 -32
8 -9 14 12 35 28 29 9 -4 16 -2 16 3 0 16 -50 12 -56 -4z"/>
<path d="M6204 7386 c-11 -29 1 -51 29 -54 16 -2 27 2 27 8 0 7 -7 10 -15 7
-8 -4 -17 -2 -20 3 -4 6 6 10 20 10 20 0 26 4 23 18 -4 22 -56 29 -64 8z m46
-6 c0 -5 -7 -10 -15 -10 -8 0 -15 5 -15 10 0 6 7 10 15 10 8 0 15 -4 15 -10z"/>
<path d="M6285 7383 c4 -10 10 -26 12 -35 8 -28 30 -21 42 13 15 44 14 48 -8
20 l-19 -24 -6 21 c-4 12 -12 22 -18 22 -6 0 -7 -7 -3 -17z"/>
<path d="M6365 7380 c-12 -37 41 -70 61 -38 5 7 2 9 -8 6 -8 -4 -21 -2 -29 3
-10 6 -4 9 20 9 26 0 32 3 27 16 -3 9 -6 18 -6 20 0 2 -13 4 -29 4 -21 0 -32
-6 -36 -20z m55 0 c0 -5 -9 -10 -21 -10 -11 0 -17 5 -14 10 3 6 13 10 21 10 8
0 14 -4 14 -10z"/>
<path d="M6495 7380 c-14 -43 44 -67 68 -29 16 26 1 49 -32 49 -21 0 -32 -6
-36 -20z m53 -13 c2 -12 -3 -17 -17 -17 -12 0 -21 6 -21 13 0 31 32 34 38 4z"/>
<path d="M6590 7350 c0 -27 5 -50 10 -50 6 0 10 8 10 18 0 13 7 18 21 18 25
-1 45 25 36 48 -4 11 -18 16 -42 16 l-35 0 0 -50z m58 17 c2 -12 -3 -17 -17
-17 -12 0 -21 6 -21 13 0 31 32 34 38 4z"/>
<path d="M6684 7385 c-13 -34 20 -64 54 -49 14 6 12 8 -13 14 -29 7 -29 8 -4
9 31 1 39 8 32 27 -7 19 -62 18 -69 -1z m51 -5 c3 -5 -3 -10 -14 -10 -12 0
-21 5 -21 10 0 6 6 10 14 10 8 0 18 -4 21 -10z"/>
<path d="M6781 7363 c1 -38 1 -38 9 -9 5 16 15 33 22 37 9 6 6 9 -9 9 -20 0
-23 -5 -22 -37z"/>
<path d="M5480 6715 l0 -165 35 0 35 0 0 165 0 165 -35 0 -35 0 0 -165z"/>
<path d="M6086 6864 c-3 -9 -6 -30 -6 -48 l0 -33 -55 5 c-66 5 -100 -12 -121
-63 -19 -47 -18 -84 6 -122 22 -37 50 -54 88 -54 15 0 55 1 90 1 l62 0 0 165
0 165 -29 0 c-17 0 -31 -6 -35 -16z m-28 -140 c16 -11 22 -25 22 -54 0 -39
-25 -70 -58 -70 -20 0 -62 47 -62 70 0 23 42 70 62 70 8 0 24 -7 36 -16z"/>
<path d="M8400 6823 c0 -44 -3 -54 -12 -45 -20 20 -102 15 -130 -8 -54 -42
-62 -138 -17 -186 38 -40 109 -50 147 -21 8 6 12 6 12 -2 0 -6 16 -11 35 -11
l35 0 0 165 0 165 -35 0 -35 0 0 -57z m-20 -103 c29 -29 27 -85 -5 -106 -40
-26 -95 4 -95 52 0 28 41 74 65 74 8 0 24 -9 35 -20z"/>
<path d="M9070 6715 l0 -165 35 0 35 0 0 71 c0 85 11 109 48 109 44 0 52 -16
52 -102 l0 -78 35 0 35 0 0 95 c0 88 -2 98 -25 120 -19 20 -34 25 -73 25 -26
0 -53 -5 -60 -12 -9 -9 -12 1 -12 45 l0 57 -35 0 -35 0 0 -165z"/>
<path d="M4840 6856 c0 -2 29 -71 63 -153 l64 -148 39 -3 39 -3 56 133 c79
185 77 178 37 178 -33 0 -34 -1 -78 -105 -25 -58 -47 -105 -50 -105 -3 0 -26
47 -50 105 l-45 105 -37 0 c-21 0 -38 -2 -38 -4z"/>
<path d="M7550 6704 l0 -156 109 4 c118 3 141 12 185 72 27 36 28 118 1 163
-33 56 -79 73 -194 73 l-101 0 0 -156z m215 71 c19 -18 25 -35 25 -67 -1 -70
-35 -98 -119 -98 l-51 0 0 64 c0 35 3 78 6 95 6 30 8 31 61 31 44 0 58 -5 78
-25z"/>
<path d="M5204 6756 c-30 -30 -34 -40 -34 -86 0 -46 4 -56 34 -86 33 -33 57
-40 115 -35 63 6 111 58 111 121 0 75 -53 120 -141 120 -45 0 -55 -4 -85 -34z
m131 -41 c58 -57 -3 -145 -71 -100 -31 20 -33 76 -4 105 26 26 46 25 75 -5z"/>
<path d="M5634 6756 c-30 -30 -34 -40 -34 -86 0 -46 4 -56 34 -86 33 -33 57
-40 115 -35 63 6 111 58 111 121 0 75 -53 120 -141 120 -45 0 -55 -4 -85 -34z
m131 -41 c58 -57 -3 -145 -71 -100 -31 20 -33 76 -4 105 26 26 46 25 75 -5z"/>
<path d="M6190 6781 c0 -5 20 -56 45 -114 25 -58 45 -112 45 -121 0 -20 -19
-30 -52 -28 -37 3 -58 -32 -29 -48 34 -18 88 -12 115 13 22 19 136 270 136
298 0 6 -14 9 -31 7 -28 -3 -34 -10 -61 -75 -17 -40 -34 -73 -37 -73 -3 0 -19
34 -36 75 -28 72 -31 75 -62 75 -18 0 -33 -4 -33 -9z"/>
<path d="M6490 6670 l0 -120 35 0 35 0 0 71 c0 86 11 109 51 109 37 0 49 -27
49 -116 l0 -64 35 0 35 0 0 71 c0 86 11 109 51 109 37 0 49 -27 49 -116 l0
-64 35 0 35 0 0 75 c0 83 -17 137 -48 154 -30 16 -94 13 -120 -5 -21 -15 -25
-15 -41 0 -20 19 -83 21 -114 5 -16 -9 -22 -9 -25 0 -2 6 -17 11 -33 11 l-29
0 0 -120z"/>
<path d="M6966 6683 c25 -59 49 -117 52 -127 7 -26 -23 -47 -53 -36 -18 7 -24
4 -33 -16 -10 -20 -8 -25 8 -34 34 -18 89 -12 113 13 20 19 109 213 131 285 7
22 5 23 -25 20 -30 -3 -35 -8 -63 -75 -16 -40 -33 -73 -36 -73 -3 0 -20 33
-36 73 -29 69 -32 72 -67 75 l-37 3 46 -108z"/>
<path d="M7230 6670 l0 -120 35 0 35 0 0 73 c0 80 15 107 58 107 18 0 22 6 22
30 0 24 -4 30 -21 30 -11 0 -30 -5 -42 -11 -16 -9 -22 -9 -25 0 -2 6 -17 11
-33 11 l-29 0 0 -120z"/>
<path d="M7920 6697 c0 -67 4 -99 15 -114 27 -38 106 -49 143 -20 8 6 12 6 12
-2 0 -6 16 -11 35 -11 l35 0 0 120 0 120 -35 0 -35 0 0 -71 c0 -85 -11 -109
-48 -109 -44 0 -52 16 -52 102 l0 78 -35 0 -35 0 0 -93z"/>
<path d="M8510 6781 c0 -5 20 -56 45 -114 25 -58 45 -112 45 -121 0 -20 -19
-30 -52 -28 -37 3 -58 -32 -29 -48 34 -18 88 -12 115 13 22 19 136 270 136
298 0 6 -14 9 -31 7 -28 -3 -34 -10 -61 -75 -17 -40 -34 -73 -37 -73 -3 0 -19
34 -36 75 -28 72 -31 75 -62 75 -18 0 -33 -4 -33 -9z"/>
<path d="M8831 6764 c-17 -14 -36 -43 -42 -64 -10 -32 -9 -44 7 -76 26 -53 62
-76 118 -76 70 -2 131 48 88 71 -15 8 -28 6 -52 -5 -25 -13 -37 -14 -56 -5
-47 21 -51 90 -7 118 23 15 27 15 58 -1 26 -14 37 -16 54 -7 28 15 27 25 -5
50 -40 32 -123 29 -163 -5z"/>
<path d="M5418 6113 c12 -2 30 -2 40 0 9 3 -1 5 -23 4 -22 0 -30 -2 -17 -4z"/>
<path d="M5604 6071 c1 -30 6 -46 16 -48 10 -3 11 -2 3 4 -6 4 -13 26 -16 48
-4 40 -4 40 -3 -4z"/>
<path d="M5143 6055 c0 -22 2 -30 4 -17 2 12 2 30 0 40 -3 9 -5 -1 -4 -23z"/>
<path d="M5312 6070 c0 -14 2 -19 5 -12 2 6 2 18 0 25 -3 6 -5 1 -5 -13z"/>
<path d="M5713 6055 c0 -22 2 -30 4 -17 2 12 2 30 0 40 -3 9 -5 -1 -4 -23z"/>
<path d="M5933 6055 c0 -22 2 -30 4 -17 2 12 2 30 0 40 -3 9 -5 -1 -4 -23z"/>
<path d="M8513 6055 c0 -22 2 -30 4 -17 2 12 2 30 0 40 -3 9 -5 -1 -4 -23z"/>
<path d="M7292 6050 c0 -19 2 -27 5 -17 2 9 2 25 0 35 -3 9 -5 1 -5 -18z"/>
<path d="M6242 6045 c0 -16 2 -22 5 -12 2 9 2 23 0 30 -3 6 -5 -1 -5 -18z"/>
<path d="M6283 6051 c1 -14 9 -26 17 -28 10 -3 11 -2 4 4 -7 4 -14 17 -17 28
-5 16 -5 15 -4 -4z"/>
<path d="M4980 6053 c17 -8 11 -21 -12 -26 -20 -5 -20 -5 2 -4 26 2 35 28 12
33 -7 1 -8 0 -2 -3z"/>
<path d="M5560 6053 c17 -8 11 -21 -12 -26 -20 -5 -20 -5 2 -4 26 2 35 28 12
33 -7 1 -8 0 -2 -3z"/>
<path d="M6790 6053 c17 -8 11 -21 -12 -26 -20 -5 -20 -5 2 -4 26 2 35 28 12
33 -7 1 -8 0 -2 -3z"/>
<path d="M6860 6053 c17 -8 11 -21 -12 -26 -20 -5 -20 -5 2 -4 26 2 35 28 12
33 -7 1 -8 0 -2 -3z"/>
<path d="M6902 6040 c0 -14 2 -19 5 -12 2 6 2 18 0 25 -3 6 -5 1 -5 -13z"/>
<path d="M8392 6040 c0 -14 2 -19 5 -12 2 6 2 18 0 25 -3 6 -5 1 -5 -13z"/>
<path d="M5668 6028 c5 -5 16 -8 23 -6 8 3 3 7 -10 11 -17 4 -21 3 -13 -5z"/>
<path d="M5758 6028 c5 -5 16 -8 23 -6 8 3 3 7 -10 11 -17 4 -21 3 -13 -5z"/>
<path d="M6625 6030 c-16 -7 -17 -9 -3 -9 9 -1 20 4 23 9 7 11 7 11 -20 0z"/>
<path d="M6948 6028 c5 -5 16 -8 23 -6 8 3 3 7 -10 11 -17 4 -21 3 -13 -5z"/>
<path d="M7235 6030 c-16 -7 -17 -9 -3 -9 9 -1 20 4 23 9 7 11 7 11 -20 0z"/>
<path d="M7728 6028 c5 -5 16 -8 23 -6 8 3 3 7 -10 11 -17 4 -21 3 -13 -5z"/>
<path d="M8225 6030 c-16 -7 -17 -9 -3 -9 9 -1 20 4 23 9 7 11 7 11 -20 0z"/>
<path d="M5068 6023 c7 -3 16 -2 19 1 4 3 -2 6 -13 5 -11 0 -14 -3 -6 -6z"/>
<path d="M5348 6023 c6 -2 18 -2 25 0 6 3 1 5 -13 5 -14 0 -19 -2 -12 -5z"/>
<path d="M5868 6023 c7 -3 16 -2 19 1 4 3 -2 6 -13 5 -11 0 -14 -3 -6 -6z"/>
<path d="M6478 6023 c7 -3 16 -2 19 1 4 3 -2 6 -13 5 -11 0 -14 -3 -6 -6z"/>
<path d="M7528 6023 c7 -3 16 -2 19 1 4 3 -2 6 -13 5 -11 0 -14 -3 -6 -6z"/>
<path d="M7618 6023 c7 -3 16 -2 19 1 4 3 -2 6 -13 5 -11 0 -14 -3 -6 -6z"/>
<path d="M7838 6023 c7 -3 16 -2 19 1 4 3 -2 6 -13 5 -11 0 -14 -3 -6 -6z"/>
<path d="M7998 6023 c7 -3 16 -2 19 1 4 3 -2 6 -13 5 -11 0 -14 -3 -6 -6z"/>
<path d="M8118 6023 c7 -3 16 -2 19 1 4 3 -2 6 -13 5 -11 0 -14 -3 -6 -6z"/>
<path d="M8448 6023 c7 -3 16 -2 19 1 4 3 -2 6 -13 5 -11 0 -14 -3 -6 -6z"/>
<path d="M4979 5812 c5 -34 6 -35 9 -8 2 16 0 32 -5 37 -5 5 -7 -7 -4 -29z"/>
<path d="M5539 5812 c5 -34 6 -35 9 -8 2 16 0 32 -5 37 -5 5 -7 -7 -4 -29z"/>
<path d="M6589 5812 c5 -34 6 -35 9 -8 2 16 0 32 -5 37 -5 5 -7 -7 -4 -29z"/>
<path d="M7389 5812 c5 -34 6 -35 9 -8 2 16 0 32 -5 37 -5 5 -7 -7 -4 -29z"/>
<path d="M7539 5812 c5 -34 6 -35 9 -8 2 16 0 32 -5 37 -5 5 -7 -7 -4 -29z"/>
<path d="M7673 5815 c0 -22 2 -30 4 -17 2 12 2 30 0 40 -3 9 -5 -1 -4 -23z"/>
<path d="M7979 5812 c5 -34 6 -35 9 -8 2 16 0 32 -5 37 -5 5 -7 -7 -4 -29z"/>
<path d="M8170 5808 c-3 -26 -1 -43 3 -39 5 5 7 26 5 47 l-3 39 -5 -47z"/>
<path d="M6873 5800 c0 -25 2 -35 4 -22 2 12 2 32 0 45 -2 12 -4 2 -4 -23z"/>
<path d="M5443 5811 c1 -14 9 -26 17 -28 10 -3 11 -2 4 4 -7 4 -14 17 -17 28
-5 16 -5 15 -4 -4z"/>
<path d="M5953 5811 c1 -14 9 -26 17 -28 10 -3 11 -2 4 4 -7 4 -14 17 -17 28
-5 16 -5 15 -4 -4z"/>
<path d="M7302 5805 c0 -16 2 -22 5 -12 2 9 2 23 0 30 -3 6 -5 -1 -5 -18z"/>
<path d="M8352 5805 c0 -16 2 -22 5 -12 2 9 2 23 0 30 -3 6 -5 -1 -5 -18z"/>
<path d="M5400 5813 c17 -8 11 -21 -12 -26 -20 -5 -20 -5 2 -4 26 2 35 28 12
33 -7 1 -8 0 -2 -3z"/>
<path d="M5495 5810 c-9 -15 4 -30 23 -29 15 1 14 2 -1 6 -11 3 -16 11 -13 19
6 16 0 19 -9 4z"/>
<path d="M7935 5810 c-9 -15 4 -30 23 -29 15 1 14 2 -1 6 -11 3 -16 11 -13 19
6 16 0 19 -9 4z"/>
<path d="M6061 5794 c0 -11 3 -14 6 -6 3 7 2 16 -1 19 -3 4 -6 -2 -5 -13z"/>
<path d="M8213 5800 c2 -8 12 -16 23 -17 13 -2 15 -1 4 4 -8 3 -19 11 -23 17
-6 7 -7 6 -4 -4z"/>
<path d="M8435 5800 c-3 -5 -1 -10 4 -10 6 0 11 5 11 10 0 6 -2 10 -4 10 -3 0
-8 -4 -11 -10z"/>
<path d="M5118 5788 c6 -6 18 -8 28 -6 14 3 12 5 -9 10 -19 3 -25 2 -19 -4z"/>
<path d="M5198 5788 c5 -5 16 -8 23 -6 8 3 3 7 -10 11 -17 4 -21 3 -13 -5z"/>
<path d="M5785 5789 c-4 -6 -5 -12 -2 -15 2 -3 7 2 10 11 7 17 1 20 -8 4z"/>
<path d="M6108 5788 c5 -5 16 -8 23 -6 8 3 3 7 -10 11 -17 4 -21 3 -13 -5z"/>
<path d="M6638 5788 c6 -6 18 -8 28 -6 14 3 12 5 -9 10 -19 3 -25 2 -19 -4z"/>
<path d="M7027 5788 c2 -5 13 -8 23 -8 10 0 21 3 23 8 3 4 -8 7 -23 7 -15 0
-26 -3 -23 -7z"/>
<path d="M5688 5783 c7 -3 16 -2 19 1 4 3 -2 6 -13 5 -11 0 -14 -3 -6 -6z"/>
<path d="M5888 5783 c6 -2 18 -2 25 0 6 3 1 5 -13 5 -14 0 -19 -2 -12 -5z"/>
<path d="M6028 5783 c7 -3 16 -2 19 1 4 3 -2 6 -13 5 -11 0 -14 -3 -6 -6z"/>
<path d="M6898 5783 c7 -3 16 -2 19 1 4 3 -2 6 -13 5 -11 0 -14 -3 -6 -6z"/>
<path d="M7268 5783 c7 -3 16 -2 19 1 4 3 -2 6 -13 5 -11 0 -14 -3 -6 -6z"/>
<path d="M8318 5783 c7 -3 16 -2 19 1 4 3 -2 6 -13 5 -11 0 -14 -3 -6 -6z"/>
<path d="M8508 5783 c7 -3 16 -2 19 1 4 3 -2 6 -13 5 -11 0 -14 -3 -6 -6z"/>
<path d="M8578 5783 c7 -3 16 -2 19 1 4 3 -2 6 -13 5 -11 0 -14 -3 -6 -6z"/>
<path d="M6693 5590 c0 -30 2 -43 4 -27 2 15 2 39 0 55 -2 15 -4 2 -4 -28z"/>
<path d="M7593 5590 c0 -30 2 -43 4 -27 2 15 2 39 0 55 -2 15 -4 2 -4 -28z"/>
<path d="M8134 5591 c1 -30 6 -46 16 -48 10 -3 11 -2 3 4 -6 4 -13 26 -16 48
-4 40 -4 40 -3 -4z"/>
<path d="M5213 5575 c0 -22 2 -30 4 -17 2 12 2 30 0 40 -3 9 -5 -1 -4 -23z"/>
<path d="M5398 5573 c2 -18 5 -33 7 -33 2 0 5 15 7 33 2 20 -1 34 -7 34 -6 0
-9 -14 -7 -34z"/>
<path d="M6290 5594 c8 -10 15 -20 16 -22 1 -2 4 1 7 5 3 5 -4 15 -16 23 -21
12 -21 12 -7 -6z"/>
<path d="M6499 5572 c5 -34 6 -35 9 -8 2 16 0 32 -5 37 -5 5 -7 -7 -4 -29z"/>
<path d="M6818 5573 c2 -18 5 -33 7 -33 2 0 5 15 7 33 2 20 -1 34 -7 34 -6 0
-9 -14 -7 -34z"/>
<path d="M7059 5593 c-13 -16 -12 -17 4 -4 9 7 17 15 17 17 0 8 -8 3 -21 -13z"/>
<path d="M8009 5572 c5 -34 6 -35 9 -8 2 16 0 32 -5 37 -5 5 -7 -7 -4 -29z"/>
<path d="M6363 5560 c0 -25 2 -35 4 -22 2 12 2 32 0 45 -2 12 -4 2 -4 -23z"/>
<path d="M7412 5570 c0 -19 2 -27 5 -17 2 9 2 25 0 35 -3 9 -5 1 -5 -18z"/>
<path d="M8282 5570 c0 -19 2 -27 5 -17 2 9 2 25 0 35 -3 9 -5 1 -5 -18z"/>
<path d="M8452 5570 c0 -19 2 -27 5 -17 2 9 2 25 0 35 -3 9 -5 1 -5 -18z"/>
<path d="M4902 5565 c0 -16 2 -22 5 -12 2 9 2 23 0 30 -3 6 -5 -1 -5 -18z"/>
<path d="M5853 5583 c-7 -2 -13 -9 -13 -15 0 -7 5 -7 13 1 8 6 18 7 22 3 5 -4
5 -1 1 6 -4 6 -8 12 -9 11 -1 0 -8 -3 -14 -6z"/>
<path d="M5950 5573 c17 -8 11 -21 -12 -26 -20 -5 -20 -5 2 -4 26 2 35 28 12
33 -7 1 -8 0 -2 -3z"/>
<path d="M6455 5570 c-9 -15 4 -30 23 -29 15 1 14 2 -1 6 -11 3 -16 11 -13 19
6 16 0 19 -9 4z"/>
<path d="M5038 5548 c5 -5 16 -8 23 -6 8 3 3 7 -10 11 -17 4 -21 3 -13 -5z"/>
<path d="M5498 5548 c6 -6 18 -8 28 -6 14 3 12 5 -9 10 -19 3 -25 2 -19 -4z"/>
<path d="M6088 5548 c5 -5 16 -8 23 -6 8 3 3 7 -10 11 -17 4 -21 3 -13 -5z"/>
<path d="M7207 5548 c2 -5 13 -8 23 -8 10 0 21 3 23 8 3 4 -8 7 -23 7 -15 0
-26 -3 -23 -7z"/>
<path d="M7458 5548 c6 -6 18 -8 28 -6 14 3 12 5 -9 10 -19 3 -25 2 -19 -4z"/>
<path d="M8198 5548 c5 -5 16 -8 23 -6 8 3 3 7 -10 11 -17 4 -21 3 -13 -5z"/>
<path d="M4868 5543 c7 -3 16 -2 19 1 4 3 -2 6 -13 5 -11 0 -14 -3 -6 -6z"/>
<path d="M5718 5543 c7 -3 16 -2 19 1 4 3 -2 6 -13 5 -11 0 -14 -3 -6 -6z"/>
<path d="M6228 5543 c7 -3 16 -2 19 1 4 3 -2 6 -13 5 -11 0 -14 -3 -6 -6z"/>
<path d="M6388 5543 c7 -3 16 -2 19 1 4 3 -2 6 -13 5 -11 0 -14 -3 -6 -6z"/>
<path d="M6658 5543 c7 -3 16 -2 19 1 4 3 -2 6 -13 5 -11 0 -14 -3 -6 -6z"/>
<path d="M7558 5543 c7 -3 16 -2 19 1 4 3 -2 6 -13 5 -11 0 -14 -3 -6 -6z"/>
<path d="M7748 5543 c7 -3 16 -2 19 1 4 3 -2 6 -13 5 -11 0 -14 -3 -6 -6z"/>
<path d="M8058 5543 c7 -3 16 -2 19 1 4 3 -2 6 -13 5 -11 0 -14 -3 -6 -6z"/>
<path d="M6910 5520 c-9 -6 -10 -10 -3 -10 6 0 15 5 18 10 8 12 4 12 -15 0z"/>
<path d="M6043 5335 c0 -22 2 -30 4 -17 2 12 2 30 0 40 -3 9 -5 -1 -4 -23z"/>
<path d="M7143 5335 c0 -22 2 -30 4 -17 2 12 2 30 0 40 -3 9 -5 -1 -4 -23z"/>
<path d="M8309 5332 c5 -34 6 -35 9 -8 2 16 0 32 -5 37 -5 5 -7 -7 -4 -29z"/>
<path d="M7373 5331 c1 -14 9 -26 17 -28 10 -3 11 -2 4 4 -7 4 -14 17 -17 28
-5 16 -5 15 -4 -4z"/>
<path d="M7812 5325 c0 -16 2 -22 5 -12 2 9 2 23 0 30 -3 6 -5 -1 -5 -18z"/>
<path d="M8163 5331 c1 -14 9 -26 17 -28 10 -3 11 -2 4 4 -7 4 -14 17 -17 28
-5 16 -5 15 -4 -4z"/>
<path d="M8433 5331 c1 -14 9 -26 17 -28 10 -3 11 -2 4 4 -7 4 -14 17 -17 28
-5 16 -5 15 -4 -4z"/>
<path d="M5300 5333 c17 -8 11 -21 -12 -26 -20 -5 -20 -5 2 -4 26 2 35 28 12
33 -7 1 -8 0 -2 -3z"/>
<path d="M6372 5320 c0 -14 2 -19 5 -12 2 6 2 18 0 25 -3 6 -5 1 -5 -13z"/>
<path d="M8265 5330 c-9 -15 4 -30 23 -29 15 1 14 2 -1 6 -11 3 -16 11 -13 19
6 16 0 19 -9 4z"/>
<path d="M5077 5308 c2 -5 13 -8 23 -8 10 0 21 3 23 8 3 4 -8 7 -23 7 -15 0
-26 -3 -23 -7z"/>
<path d="M5348 5308 c5 -5 16 -8 23 -6 8 3 3 7 -10 11 -17 4 -21 3 -13 -5z"/>
<path d="M5845 5310 c-16 -7 -17 -9 -3 -9 9 -1 20 4 23 9 7 11 7 11 -20 0z"/>
<path d="M5985 5310 c-16 -7 -17 -9 -3 -9 9 -1 20 4 23 9 7 11 7 11 -20 0z"/>
<path d="M6808 5308 c5 -5 16 -8 23 -6 8 3 3 7 -10 11 -17 4 -21 3 -13 -5z"/>
<path d="M7098 5308 c5 -5 16 -8 23 -6 8 3 3 7 -10 11 -17 4 -21 3 -13 -5z"/>
<path d="M7258 5308 c6 -6 18 -8 28 -6 14 3 12 5 -9 10 -19 3 -25 2 -19 -4z"/>
<path d="M7455 5310 c-16 -7 -17 -9 -3 -9 9 -1 20 4 23 9 7 11 7 11 -20 0z"/>
<path d="M7558 5308 c5 -5 16 -8 23 -6 8 3 3 7 -10 11 -17 4 -21 3 -13 -5z"/>
<path d="M7688 5308 c6 -6 18 -8 28 -6 14 3 12 5 -9 10 -19 3 -25 2 -19 -4z"/>
<path d="M7908 5308 c6 -6 18 -8 28 -6 14 3 12 5 -9 10 -19 3 -25 2 -19 -4z"/>
<path d="M8358 5308 c5 -5 16 -8 23 -6 8 3 3 7 -10 11 -17 4 -21 3 -13 -5z"/>
<path d="M4878 5303 c7 -3 16 -2 19 1 4 3 -2 6 -13 5 -11 0 -14 -3 -6 -6z"/>
<path d="M6068 5303 c7 -3 16 -2 19 1 4 3 -2 6 -13 5 -11 0 -14 -3 -6 -6z"/>
<path d="M6198 5303 c7 -3 16 -2 19 1 4 3 -2 6 -13 5 -11 0 -14 -3 -6 -6z"/>
<path d="M6418 5303 c6 -2 18 -2 25 0 6 3 1 5 -13 5 -14 0 -19 -2 -12 -5z"/>
<path d="M7188 5303 c6 -2 18 -2 25 0 6 3 1 5 -13 5 -14 0 -19 -2 -12 -5z"/>
<path d="M7778 5303 c7 -3 16 -2 19 1 4 3 -2 6 -13 5 -11 0 -14 -3 -6 -6z"/>
<path d="M8118 5303 c7 -3 16 -2 19 1 4 3 -2 6 -13 5 -11 0 -14 -3 -6 -6z"/>
<path d="M8618 5303 c7 -3 16 -2 19 1 4 3 -2 6 -13 5 -11 0 -14 -3 -6 -6z"/>
<path d="M5603 5095 c0 -22 2 -30 4 -17 2 12 2 30 0 40 -3 9 -5 -1 -4 -23z"/>
<path d="M6799 5092 c5 -34 6 -35 9 -8 2 16 0 32 -5 37 -5 5 -7 -7 -4 -29z"/>
<path d="M7349 5092 c5 -34 6 -35 9 -8 2 16 0 32 -5 37 -5 5 -7 -7 -4 -29z"/>
<path d="M4902 5085 c0 -16 2 -22 5 -12 2 9 2 23 0 30 -3 6 -5 -1 -5 -18z"/>
<path d="M7782 5085 c0 -16 2 -22 5 -12 2 9 2 23 0 30 -3 6 -5 -1 -5 -18z"/>
<path d="M5470 5093 c17 -8 11 -21 -12 -26 -20 -5 -20 -5 2 -4 26 2 35 28 12
33 -7 1 -8 0 -2 -3z"/>
<path d="M5670 5093 c17 -8 11 -21 -12 -26 -20 -5 -20 -5 2 -4 26 2 35 28 12
33 -7 1 -8 0 -2 -3z"/>
<path d="M5844 5080 c1 -8 10 -16 21 -17 15 -1 15 0 3 3 -9 3 -19 11 -21 17
-2 7 -3 5 -3 -3z"/>
<path d="M6340 5093 c17 -8 11 -21 -12 -26 -20 -5 -20 -5 2 -4 26 2 35 28 12
33 -7 1 -8 0 -2 -3z"/>
<path d="M7305 5090 c-9 -15 4 -30 23 -29 15 1 14 2 -1 6 -11 3 -16 11 -13 19
6 16 0 19 -9 4z"/>
<path d="M7872 5080 c0 -14 2 -19 5 -12 2 6 2 18 0 25 -3 6 -5 1 -5 -13z"/>
<path d="M8120 5093 c17 -8 11 -21 -12 -26 -20 -5 -20 -5 2 -4 26 2 35 28 12
33 -7 1 -8 0 -2 -3z"/>
<path d="M5558 5068 c5 -5 16 -8 23 -6 8 3 3 7 -10 11 -17 4 -21 3 -13 -5z"/>
<path d="M5718 5068 c6 -6 18 -8 28 -6 14 3 12 5 -9 10 -19 3 -25 2 -19 -4z"/>
<path d="M6138 5068 c6 -6 18 -8 28 -6 14 3 12 5 -9 10 -19 3 -25 2 -19 -4z"/>
<path d="M6255 5070 c-16 -7 -17 -9 -3 -9 9 -1 20 4 23 9 7 11 7 11 -20 0z"/>
<path d="M6478 5068 c6 -6 18 -8 28 -6 14 3 12 5 -9 10 -19 3 -25 2 -19 -4z"/>
<path d="M6848 5068 c5 -5 16 -8 23 -6 8 3 3 7 -10 11 -17 4 -21 3 -13 -5z"/>
<path d="M7098 5068 c6 -6 18 -8 28 -6 14 3 12 5 -9 10 -19 3 -25 2 -19 -4z"/>
<path d="M7215 5070 c-16 -7 -17 -9 -3 -9 9 -1 20 4 23 9 7 11 7 11 -20 0z"/>
<path d="M7525 5070 c-16 -7 -17 -9 -3 -9 9 -1 20 4 23 9 7 11 7 11 -20 0z"/>
<path d="M7918 5068 c5 -5 16 -8 23 -6 8 3 3 7 -10 11 -17 4 -21 3 -13 -5z"/>
<path d="M4868 5063 c7 -3 16 -2 19 1 4 3 -2 6 -13 5 -11 0 -14 -3 -6 -6z"/>
<path d="M4948 5063 c7 -3 16 -2 19 1 4 3 -2 6 -13 5 -11 0 -14 -3 -6 -6z"/>
<path d="M5188 5063 c7 -3 16 -2 19 1 4 3 -2 6 -13 5 -11 0 -14 -3 -6 -6z"/>
<path d="M5368 5063 c7 -3 16 -2 19 1 4 3 -2 6 -13 5 -11 0 -14 -3 -6 -6z"/>
<path d="M6568 5063 c7 -3 16 -2 19 1 4 3 -2 6 -13 5 -11 0 -14 -3 -6 -6z"/>
<path d="M7418 5063 c7 -3 16 -2 19 1 4 3 -2 6 -13 5 -11 0 -14 -3 -6 -6z"/>
<path d="M7678 5063 c7 -3 16 -2 19 1 4 3 -2 6 -13 5 -11 0 -14 -3 -6 -6z"/>
<path d="M7748 5063 c7 -3 16 -2 19 1 4 3 -2 6 -13 5 -11 0 -14 -3 -6 -6z"/>
<path d="M5250 4535 c0 -8 9 -15 20 -15 11 0 20 7 20 15 0 8 -9 15 -20 15 -11
0 -20 -7 -20 -15z"/>
<path d="M4860 4455 c0 -60 3 -75 15 -75 8 0 15 8 15 19 0 14 10 20 40 25 24
4 43 14 50 25 26 50 -1 81 -71 81 l-49 0 0 -75z m85 41 c16 -12 17 -16 6 -30
-7 -9 -24 -16 -37 -16 -18 0 -24 5 -24 23 0 39 21 48 55 23z"/>
<path d="M5591 4499 c-8 -14 -9 -24 -3 -28 6 -3 12 -24 14 -46 3 -35 6 -40 31
-43 19 -2 27 1 27 12 0 9 -6 15 -12 14 -8 -2 -14 10 -16 30 -2 24 1 32 12 32
9 0 16 5 16 10 0 6 -7 10 -15 10 -8 0 -15 7 -15 15 0 22 -23 18 -39 -6z"/>
<path d="M5020 4438 c0 -45 3 -58 15 -58 11 0 15 11 15 41 0 32 4 42 20 46 33
9 23 29 -15 29 l-35 0 0 -58z"/>
<path d="M5122 4484 c-45 -31 -17 -104 39 -104 55 0 82 51 48 93 -23 30 -54
34 -87 11z m66 -46 c3 -24 0 -28 -23 -28 -27 0 -41 20 -31 46 10 27 51 13 54
-18z"/>
<path d="M5250 4431 c0 -56 -3 -71 -15 -71 -8 0 -15 -4 -15 -10 0 -5 11 -10
25 -10 34 0 47 29 43 98 -2 45 -7 58 -20 60 -16 3 -18 -5 -18 -67z"/>
<path d="M5330 4480 c-26 -26 -25 -55 1 -81 23 -23 79 -23 87 0 3 10 -1 12
-18 8 -25 -6 -50 1 -50 14 0 5 18 9 40 9 32 0 40 4 40 18 0 25 -31 52 -58 52
-12 0 -31 -9 -42 -20z m70 -21 c0 -5 -15 -9 -32 -9 -31 1 -32 2 -15 15 19 14
47 10 47 -6z"/>
<path d="M5472 4484 c-44 -31 -17 -104 39 -104 29 0 56 16 46 26 -4 4 -22 8
-40 8 -27 1 -32 5 -32 26 0 21 5 25 30 26 46 2 48 3 35 19 -16 19 -50 19 -78
-1z"/>
<path d="M5691 4486 c-20 -24 -9 -50 24 -56 38 -7 33 -26 -6 -22 -21 1 -29 -2
-27 -10 7 -20 79 -16 91 4 14 22 -7 48 -40 48 -15 0 -23 5 -20 13 2 7 16 11
32 9 19 -2 26 1 23 10 -7 19 -62 22 -77 4z"/>
<path d="M4840 4090 c0 -5 5 -10 10 -10 6 0 10 -13 10 -30 0 -16 -4 -30 -10
-30 -5 0 -10 -4 -10 -10 0 -5 14 -10 30 -10 17 0 30 5 30 10 0 6 -4 10 -10 10
-5 0 -10 18 -10 40 0 33 -3 40 -20 40 -11 0 -20 -4 -20 -10z"/>
<path d="M5723 4050 c0 -30 2 -43 4 -27 2 15 2 39 0 55 -2 15 -4 2 -4 -28z"/>
<path d="M6820 4035 c0 -45 4 -65 13 -65 8 0 12 20 12 65 0 45 -4 65 -12 65
-9 0 -13 -20 -13 -65z"/>
<path d="M7028 4093 c12 -2 30 -2 40 0 9 3 -1 5 -23 4 -22 0 -30 -2 -17 -4z"/>
<path d="M7333 4093 c9 -2 23 -2 30 0 6 3 -1 5 -18 5 -16 0 -22 -2 -12 -5z"/>
<path d="M7588 4093 c7 -3 16 -2 19 1 4 3 -2 6 -13 5 -11 0 -14 -3 -6 -6z"/>
<path d="M7743 4093 c9 -2 23 -2 30 0 6 3 -1 5 -18 5 -16 0 -22 -2 -12 -5z"/>
<path d="M7892 4093 c11 -3 18 -17 21 -41 l4 -37 1 43 c2 38 0 42 -20 41 -17
-1 -18 -3 -6 -6z"/>
<path d="M8628 4093 c15 -6 17 -103 2 -103 -5 0 -10 -4 -10 -10 0 -5 9 -10 20
-10 18 0 20 7 20 65 0 61 -1 65 -22 64 -13 0 -17 -3 -10 -6z"/>
<path d="M6913 4045 c0 -27 2 -38 4 -22 2 15 2 37 0 50 -2 12 -4 0 -4 -28z"/>
<path d="M7242 4048 l-2 -48 33 1 c29 2 29 2 5 6 -24 4 -27 10 -31 46 l-4 42
-1 -47z"/>
<path d="M7560 4071 c0 -6 4 -13 10 -16 6 -3 7 1 4 9 -7 18 -14 21 -14 7z"/>
<path d="M5159 4032 c5 -34 6 -35 9 -8 2 16 0 32 -5 37 -5 5 -7 -7 -4 -29z"/>
<path d="M5881 4054 c0 -11 3 -14 6 -6 3 7 2 16 -1 19 -3 4 -6 -2 -5 -13z"/>
<path d="M7462 4050 c0 -14 2 -19 5 -12 2 6 2 18 0 25 -3 6 -5 1 -5 -13z"/>
<path d="M7328 4053 c7 -3 16 -2 19 1 4 3 -2 6 -13 5 -11 0 -14 -3 -6 -6z"/>
<path d="M6022 4025 c0 -16 2 -22 5 -12 2 9 2 23 0 30 -3 6 -5 -1 -5 -18z"/>
<path d="M6070 4040 c-8 -5 -12 -12 -9 -15 4 -3 12 1 19 10 14 17 11 19 -10 5z"/>
<path d="M8152 4025 c0 -16 2 -22 5 -12 2 9 2 23 0 30 -3 6 -5 -1 -5 -18z"/>
<path d="M8220 4046 c0 -2 7 -7 16 -10 8 -3 12 -2 9 4 -6 10 -25 14 -25 6z"/>
<path d="M5840 4033 c17 -8 11 -21 -12 -26 -20 -5 -20 -5 2 -4 26 2 35 28 12
33 -7 1 -8 0 -2 -3z"/>
<path d="M5975 4030 c-9 -15 4 -30 23 -29 15 1 14 2 -1 6 -11 3 -16 11 -13 19
6 16 0 19 -9 4z"/>
<path d="M8105 4030 c-9 -15 4 -30 23 -29 15 1 14 2 -1 6 -11 3 -16 11 -13 19
6 16 0 19 -9 4z"/>
<path d="M4920 4010 c0 -5 5 -10 10 -10 6 0 10 5 10 10 0 6 -4 10 -10 10 -5 0
-10 -4 -10 -10z"/>
<path d="M5207 4009 c7 -7 15 -10 18 -7 3 3 -2 9 -12 12 -14 6 -15 5 -6 -5z"/>
<path d="M7680 4010 c-23 -7 -23 -8 -3 -9 12 -1 25 4 28 9 3 6 5 10 3 9 -2 -1
-14 -5 -28 -9z"/>
<path d="M7760 4010 c-23 -7 -23 -8 -3 -9 12 -1 25 4 28 9 3 6 5 10 3 9 -2 -1
-14 -5 -28 -9z"/>
<path d="M8220 4010 c-23 -7 -23 -8 -3 -9 12 -1 25 4 28 9 3 6 5 10 3 9 -2 -1
-14 -5 -28 -9z"/>
<path d="M5268 4003 c7 -3 16 -2 19 1 4 3 -2 6 -13 5 -11 0 -14 -3 -6 -6z"/>
<path d="M5338 4003 c7 -3 16 -2 19 1 4 3 -2 6 -13 5 -11 0 -14 -3 -6 -6z"/>
<path d="M5418 4003 c7 -3 16 -2 19 1 4 3 -2 6 -13 5 -11 0 -14 -3 -6 -6z"/>
<path d="M5688 4003 c7 -3 16 -2 19 1 4 3 -2 6 -13 5 -11 0 -14 -3 -6 -6z"/>
<path d="M6158 4003 c7 -3 16 -2 19 1 4 3 -2 6 -13 5 -11 0 -14 -3 -6 -6z"/>
<path d="M7328 4003 c6 -2 18 -2 25 0 6 3 1 5 -13 5 -14 0 -19 -2 -12 -5z"/>
<path d="M7498 4003 c6 -2 18 -2 25 0 6 3 1 5 -13 5 -14 0 -19 -2 -12 -5z"/>
<path d="M7578 4003 c6 -2 18 -2 25 0 6 3 1 5 -13 5 -14 0 -19 -2 -12 -5z"/>
<path d="M7888 4003 c7 -3 16 -2 19 1 4 3 -2 6 -13 5 -11 0 -14 -3 -6 -6z"/>
<path d="M7968 4003 c7 -3 16 -2 19 1 4 3 -2 6 -13 5 -11 0 -14 -3 -6 -6z"/>
<path d="M8298 4003 c7 -3 16 -2 19 1 4 3 -2 6 -13 5 -11 0 -14 -3 -6 -6z"/>
<path d="M8478 4003 c7 -3 16 -2 19 1 4 3 -2 6 -13 5 -11 0 -14 -3 -6 -6z"/>
<path d="M8558 4003 c7 -3 16 -2 19 1 4 3 -2 6 -13 5 -11 0 -14 -3 -6 -6z"/>
<path d="M4837 3853 c-14 -13 -6 -20 18 -15 14 2 25 0 25 -5 0 -5 -11 -20 -25
-33 -34 -32 -32 -40 10 -40 19 0 35 5 35 10 0 6 -10 10 -22 10 l-22 0 22 20
c25 24 27 31 10 48 -13 13 -41 16 -51 5z"/>
<path d="M5723 3810 c0 -30 2 -43 4 -27 2 15 2 39 0 55 -2 15 -4 2 -4 -28z"/>
<path d="M6830 3795 c0 -58 2 -65 20 -65 11 0 20 5 20 10 0 6 -4 10 -10 10
-15 0 -13 97 3 103 6 3 2 6 -10 6 -22 1 -23 -3 -23 -64z"/>
<path d="M6928 3853 c6 -2 18 -2 25 0 6 3 1 5 -13 5 -14 0 -19 -2 -12 -5z"/>
<path d="M7675 3795 c0 -45 4 -65 13 -65 8 0 12 20 12 65 0 45 -4 65 -12 65
-9 0 -13 -20 -13 -65z"/>
<path d="M5159 3792 c5 -34 6 -35 9 -8 2 16 0 32 -5 37 -5 5 -7 -7 -4 -29z"/>
<path d="M5869 3792 c5 -34 6 -35 9 -8 2 16 0 32 -5 37 -5 5 -7 -7 -4 -29z"/>
<path d="M5991 3814 c0 -11 3 -14 6 -6 3 7 2 16 -1 19 -3 4 -6 -2 -5 -13z"/>
<path d="M6140 3788 c-3 -26 -1 -43 3 -39 5 5 7 26 5 47 l-3 39 -5 -47z"/>
<path d="M6181 3814 c0 -11 3 -14 6 -6 3 7 2 16 -1 19 -3 4 -6 -2 -5 -13z"/>
<path d="M6289 3792 c5 -34 6 -35 9 -8 2 16 0 32 -5 37 -5 5 -7 -7 -4 -29z"/>
<path d="M6411 3814 c0 -11 3 -14 6 -6 3 7 2 16 -1 19 -3 4 -6 -2 -5 -13z"/>
<path d="M5952 3785 c0 -16 2 -22 5 -12 2 9 2 23 0 30 -3 6 -5 -1 -5 -18z"/>
<path d="M5905 3790 c-9 -15 4 -30 23 -29 15 1 14 2 -1 6 -11 3 -16 11 -13 19
6 16 0 19 -9 4z"/>
<path d="M4920 3770 c0 -5 5 -10 10 -10 6 0 10 5 10 10 0 6 -4 10 -10 10 -5 0
-10 -4 -10 -10z"/>
<path d="M5207 3769 c7 -7 15 -10 18 -7 3 3 -2 9 -12 12 -14 6 -15 5 -6 -5z"/>
<path d="M6935 3770 c-16 -7 -17 -9 -3 -9 9 -1 20 4 23 9 7 11 7 11 -20 0z"/>
<path d="M7260 3770 c-23 -7 -23 -8 -3 -9 12 -1 25 4 28 9 3 6 5 10 3 9 -2 -1
-14 -5 -28 -9z"/>
<path d="M5268 3763 c7 -3 16 -2 19 1 4 3 -2 6 -13 5 -11 0 -14 -3 -6 -6z"/>
<path d="M5338 3763 c7 -3 16 -2 19 1 4 3 -2 6 -13 5 -11 0 -14 -3 -6 -6z"/>
<path d="M5418 3763 c7 -3 16 -2 19 1 4 3 -2 6 -13 5 -11 0 -14 -3 -6 -6z"/>
<path d="M5688 3763 c7 -3 16 -2 19 1 4 3 -2 6 -13 5 -11 0 -14 -3 -6 -6z"/>
<path d="M6338 3763 c7 -3 16 -2 19 1 4 3 -2 6 -13 5 -11 0 -14 -3 -6 -6z"/>
<path d="M7008 3763 c7 -3 16 -2 19 1 4 3 -2 6 -13 5 -11 0 -14 -3 -6 -6z"/>
<path d="M7158 3763 c7 -3 16 -2 19 1 4 3 -2 6 -13 5 -11 0 -14 -3 -6 -6z"/>
<path d="M7338 3763 c7 -3 16 -2 19 1 4 3 -2 6 -13 5 -11 0 -14 -3 -6 -6z"/>
<path d="M7518 3763 c7 -3 16 -2 19 1 4 3 -2 6 -13 5 -11 0 -14 -3 -6 -6z"/>
<path d="M7598 3763 c7 -3 16 -2 19 1 4 3 -2 6 -13 5 -11 0 -14 -3 -6 -6z"/>
<path d="M4830 3610 c0 -5 10 -10 22 -10 17 0 19 -3 10 -12 -16 -16 -15 -28 3
-28 8 0 15 -4 15 -10 0 -5 -11 -10 -25 -10 -14 0 -25 -5 -25 -11 0 -6 14 -9
32 -7 35 3 51 34 27 49 -11 6 -11 11 -1 21 20 20 14 28 -23 28 -19 0 -35 -4
-35 -10z"/>
<path d="M5723 3570 c0 -30 2 -43 4 -27 2 15 2 39 0 55 -2 15 -4 2 -4 -28z"/>
<path d="M6900 3555 c0 -45 4 -65 13 -65 8 0 12 20 12 65 0 45 -4 65 -12 65
-9 0 -13 -20 -13 -65z"/>
<path d="M6998 3613 c7 -3 16 -2 19 1 4 3 -2 6 -13 5 -11 0 -14 -3 -6 -6z"/>
<path d="M7318 3613 c7 -3 16 -2 19 1 4 3 -2 6 -13 5 -11 0 -14 -3 -6 -6z"/>
<path d="M7738 3608 c14 -14 16 -98 2 -98 -5 0 -10 -4 -10 -10 0 -5 7 -10 15
-10 12 0 15 14 15 65 0 55 -3 65 -17 65 -13 0 -14 -3 -5 -12z"/>
<path d="M7290 3591 c0 -6 4 -13 10 -16 6 -3 7 1 4 9 -7 18 -14 21 -14 7z"/>
<path d="M5159 3552 c5 -34 6 -35 9 -8 2 16 0 32 -5 37 -5 5 -7 -7 -4 -29z"/>
<path d="M4920 3530 c0 -5 5 -10 10 -10 6 0 10 5 10 10 0 6 -4 10 -10 10 -5 0
-10 -4 -10 -10z"/>
<path d="M5207 3529 c7 -7 15 -10 18 -7 3 3 -2 9 -12 12 -14 6 -15 5 -6 -5z"/>
<path d="M6168 3528 c5 -5 16 -8 23 -6 8 3 3 7 -10 11 -17 4 -21 3 -13 -5z"/>
<path d="M7388 3528 c6 -6 18 -8 28 -6 14 3 12 5 -9 10 -19 3 -25 2 -19 -4z"/>
<path d="M7595 3530 c-16 -7 -17 -9 -3 -9 9 -1 20 4 23 9 7 11 7 11 -20 0z"/>
<path d="M7657 3529 c7 -7 15 -10 18 -7 3 3 -2 9 -12 12 -14 6 -15 5 -6 -5z"/>
<path d="M5268 3523 c7 -3 16 -2 19 1 4 3 -2 6 -13 5 -11 0 -14 -3 -6 -6z"/>
<path d="M5338 3523 c7 -3 16 -2 19 1 4 3 -2 6 -13 5 -11 0 -14 -3 -6 -6z"/>
<path d="M5418 3523 c7 -3 16 -2 19 1 4 3 -2 6 -13 5 -11 0 -14 -3 -6 -6z"/>
<path d="M5688 3523 c7 -3 16 -2 19 1 4 3 -2 6 -13 5 -11 0 -14 -3 -6 -6z"/>
<path d="M5828 3523 c7 -3 16 -2 19 1 4 3 -2 6 -13 5 -11 0 -14 -3 -6 -6z"/>
<path d="M5948 3523 c7 -3 16 -2 19 1 4 3 -2 6 -13 5 -11 0 -14 -3 -6 -6z"/>
<path d="M6018 3523 c7 -3 16 -2 19 1 4 3 -2 6 -13 5 -11 0 -14 -3 -6 -6z"/>
<path d="M6098 3523 c6 -2 18 -2 25 0 6 3 1 5 -13 5 -14 0 -19 -2 -12 -5z"/>
<path d="M6328 3523 c7 -3 16 -2 19 1 4 3 -2 6 -13 5 -11 0 -14 -3 -6 -6z"/>
<path d="M7068 3523 c7 -3 16 -2 19 1 4 3 -2 6 -13 5 -11 0 -14 -3 -6 -6z"/>
<path d="M7228 3523 c7 -3 16 -2 19 1 4 3 -2 6 -13 5 -11 0 -14 -3 -6 -6z"/>
<path d="M7308 3523 c6 -2 18 -2 25 0 6 3 1 5 -13 5 -14 0 -19 -2 -12 -5z"/>
<path d="M6207 2904 c-9 -10 2 -24 19 -24 8 0 14 7 14 15 0 15 -21 21 -33 9z"/>
<path d="M5340 2820 c0 -64 3 -80 15 -80 8 0 15 9 15 20 0 26 24 26 42 -1 8
-13 21 -20 33 -18 17 4 16 6 -8 34 l-26 30 27 28 c23 24 24 27 7 27 -10 0 -32
-12 -47 -27 l-28 -27 0 47 c0 35 -4 47 -15 47 -12 0 -15 -16 -15 -80z"/>
<path d="M4850 2884 c0 -4 10 -38 22 -76 18 -57 26 -68 42 -66 13 2 25 19 37
53 10 30 19 44 22 35 3 -8 11 -32 17 -52 19 -64 44 -51 73 37 24 70 24 75 8
75 -13 0 -22 -13 -31 -45 -7 -25 -16 -45 -20 -45 -4 0 -13 20 -20 45 -18 63
-43 61 -65 -6 -9 -28 -19 -48 -21 -46 -3 2 -10 24 -17 48 -8 27 -20 45 -30 47
-9 2 -17 0 -17 -4z"/>
<path d="M5550 2815 l0 -75 55 0 c42 0 55 3 55 15 0 11 -11 15 -41 15 -33 0
-40 3 -37 18 2 11 14 18 36 20 43 4 41 22 -3 22 -28 0 -35 4 -35 20 0 17 7 20
40 20 22 0 40 5 40 10 0 6 -25 10 -55 10 l-55 0 0 -75z"/>
<path d="M5110 2840 c-11 -11 -20 -29 -20 -40 0 -28 35 -60 65 -60 30 0 65 32
65 60 0 28 -35 60 -65 60 -14 0 -34 -9 -45 -20z m76 -32 c12 -39 -45 -60 -60
-22 -9 23 5 44 29 44 15 0 26 -8 31 -22z"/>
<path d="M5240 2799 c0 -46 3 -59 15 -59 10 0 15 10 15 30 0 17 9 39 20 50 28
28 25 36 -15 37 l-35 1 0 -59z"/>
<path d="M5700 2830 l21 -30 -21 -30 c-19 -27 -19 -30 -4 -30 9 0 23 8 30 18
13 16 15 16 28 -1 8 -10 22 -17 31 -15 15 3 14 6 -5 30 l-21 28 21 30 c24 33
9 41 -23 13 -18 -17 -19 -17 -32 0 -6 9 -20 17 -29 17 -15 0 -15 -3 4 -30z"/>
<path d="M5820 2778 c0 -63 3 -78 15 -78 9 0 15 9 15 24 0 22 3 24 34 19 27
-4 36 -1 50 18 36 53 5 98 -68 97 l-46 -1 0 -79z m94 37 c13 -36 -23 -65 -49
-39 -17 18 -17 17 -9 38 8 20 50 21 58 1z"/>
<path d="M5992 2844 c-27 -19 -29 -64 -4 -87 20 -19 59 -22 82 -7 12 8 12 10
-2 15 -10 4 -21 4 -26 1 -5 -3 -18 1 -28 9 -17 13 -15 14 29 15 53 0 61 16 27
50 -24 24 -48 25 -78 4z m68 -29 c0 -3 -14 -5 -31 -5 -27 0 -30 2 -19 15 9 11
17 12 31 4 10 -5 19 -12 19 -14z"/>
<path d="M6110 2799 c0 -46 3 -59 15 -59 10 0 15 10 15 30 0 17 9 39 20 50 28
28 25 36 -15 37 l-35 1 0 -59z"/>
<path d="M6210 2800 c0 -47 3 -60 15 -60 12 0 15 13 15 60 0 47 -3 60 -15 60
-12 0 -15 -13 -15 -60z"/>
<path d="M6294 2852 c-23 -15 -34 -50 -24 -76 14 -38 87 -50 98 -17 3 10 -1
12 -18 8 -25 -6 -50 1 -50 14 0 5 21 9 46 9 42 0 45 1 39 23 -12 39 -60 60
-91 39z m56 -33 c0 -5 -11 -9 -25 -9 -26 0 -34 15 -12 23 16 5 37 -3 37 -14z"/>
<path d="M6410 2799 c0 -46 3 -59 15 -59 10 0 15 10 15 33 0 41 12 60 36 55
14 -2 20 -13 22 -46 2 -28 8 -42 18 -42 10 0 14 13 14 50 0 57 -12 68 -77 67
l-43 0 0 -58z"/>
<path d="M6582 2844 c-27 -19 -29 -64 -4 -87 23 -21 65 -22 82 -2 13 16 11 17
-35 19 -25 1 -30 5 -30 26 0 21 5 25 30 26 46 2 48 3 35 19 -16 19 -50 19 -78
-1z"/>
<path d="M6714 2852 c-23 -15 -34 -50 -24 -76 14 -38 87 -50 98 -17 3 10 -1
12 -18 8 -25 -6 -50 1 -50 14 0 5 21 9 46 9 42 0 45 1 39 23 -12 39 -60 60
-91 39z m56 -33 c0 -5 -11 -9 -25 -9 -26 0 -34 15 -12 23 16 5 37 -3 37 -14z"/>
<path d="M5060 2380 c0 -33 4 -60 10 -60 6 0 10 27 10 60 0 33 -4 60 -10 60
-6 0 -10 -27 -10 -60z"/>
<path d="M5110 2380 c0 -33 4 -60 10 -60 6 0 10 27 10 60 0 33 -4 60 -10 60
-6 0 -10 -27 -10 -60z"/>
<path d="M5510 2380 c0 -33 4 -60 10 -60 6 0 10 7 10 15 0 19 9 19 32 -2 25
-22 36 -8 13 17 -14 16 -15 22 -5 35 17 20 1 19 -22 -2 -17 -15 -18 -14 -18
20 0 21 -4 37 -10 37 -6 0 -10 -27 -10 -60z"/>
<path d="M4850 2375 c0 -42 3 -55 15 -55 8 0 15 9 15 20 0 15 7 20 25 20 14 0
25 5 25 10 0 6 -11 10 -25 10 -16 0 -25 6 -25 15 0 9 9 15 24 15 14 0 28 5 31
10 4 6 -12 10 -39 10 l-46 0 0 -55z"/>
<path d="M5243 2405 c-8 -9 -9 -16 -3 -20 6 -3 10 -17 10 -31 0 -25 25 -43 38
-29 4 4 1 10 -5 12 -16 6 -17 53 -2 53 6 0 4 7 -5 15 -18 18 -18 18 -33 0z"/>
<path d="M5168 2399 c-25 -14 -22 -26 10 -43 l27 -15 -28 -1 c-16 0 -26 -4
-22 -10 9 -14 51 -12 64 3 12 15 -3 37 -26 37 -7 0 -13 5 -13 10 0 6 10 10 23
10 18 0 19 2 7 10 -18 12 -21 12 -42 -1z"/>
<path d="M5320 2400 c-16 -10 -8 -14 23 -11 25 3 21 -17 -5 -21 -15 -2 -23
-10 -23 -23 0 -16 7 -20 38 -22 34 -1 37 1 37 27 0 47 -36 72 -70 50z m40 -48
c0 -13 -12 -22 -22 -16 -10 6 -1 24 13 24 5 0 9 -4 9 -8z"/>
<path d="M5428 2399 c-22 -12 -23 -52 -3 -69 9 -7 25 -10 40 -6 33 8 24 25
-11 18 -22 -4 -25 -2 -22 19 2 20 8 24 33 21 29 -2 29 -2 11 13 -23 18 -25 18
-48 4z"/>
<path d="M4950 2371 c0 -35 15 -48 58 -49 31 -1 32 1 32 39 0 28 -4 39 -15 39
-10 0 -15 -10 -15 -31 0 -24 -4 -30 -17 -27 -11 2 -19 14 -21 31 -4 36 -22 35
-22 -2z"/>
<path d="M6383 2065 c0 -33 2 -45 4 -27 2 18 2 45 0 60 -2 15 -4 0 -4 -33z"/>
<path d="M6928 1773 c6 -2 18 -2 25 0 6 3 1 5 -13 5 -14 0 -19 -2 -12 -5z"/>
<path d="M8163 1773 c9 -2 25 -2 35 0 9 3 1 5 -18 5 -19 0 -27 -2 -17 -5z"/>
<path d="M6334 1731 c1 -30 6 -46 16 -48 10 -3 11 -2 3 4 -6 4 -13 26 -16 48
-4 40 -4 40 -3 -4z"/>
<path d="M4841 1736 c-9 -10 -8 -16 3 -25 10 -9 16 -8 25 3 9 10 8 16 -3 25
-10 9 -16 8 -25 -3z"/>
<path d="M7324 1728 l-19 -23 23 19 c21 18 27 26 19 26 -2 0 -12 -10 -23 -22z"/>
<path d="M7570 1708 c-3 -26 -1 -43 3 -39 5 5 7 26 5 47 l-3 39 -5 -47z"/>
<path d="M6918 1733 c7 -3 16 -2 19 1 4 3 -2 6 -13 5 -11 0 -14 -3 -6 -6z"/>
<path d="M8045 1710 l-29 -30 40 1 c31 2 34 3 10 6 l-28 5 23 24 c12 13 20 24
18 24 -3 0 -18 -13 -34 -30z"/>
<path d="M6292 1705 c0 -16 2 -22 5 -12 2 9 2 23 0 30 -3 6 -5 -1 -5 -18z"/>
<path d="M8842 1705 c0 -16 2 -22 5 -12 2 9 2 23 0 30 -3 6 -5 -1 -5 -18z"/>
<path d="M6245 1710 c-9 -15 4 -30 23 -29 15 1 14 2 -1 6 -11 3 -16 11 -13 19
6 16 0 19 -9 4z"/>
<path d="M8795 1710 c-9 -15 4 -30 23 -29 15 1 14 2 -1 6 -11 3 -16 11 -13 19
6 16 0 19 -9 4z"/>
<path d="M7330 1706 c0 -2 8 -10 18 -17 15 -13 16 -12 3 4 -13 16 -21 21 -21
13z"/>
<path d="M5385 1690 c-16 -7 -17 -9 -3 -9 9 -1 20 4 23 9 7 11 7 11 -20 0z"/>
<path d="M5557 1689 c7 -7 15 -10 18 -7 3 3 -2 9 -12 12 -14 6 -15 5 -6 -5z"/>
<path d="M5608 1688 c6 -6 18 -8 28 -6 14 3 12 5 -9 10 -19 3 -25 2 -19 -4z"/>
<path d="M6038 1688 c6 -6 18 -8 28 -6 14 3 12 5 -9 10 -19 3 -25 2 -19 -4z"/>
<path d="M6478 1688 c5 -5 16 -8 23 -6 8 3 3 7 -10 11 -17 4 -21 3 -13 -5z"/>
<path d="M6940 1690 c-23 -7 -23 -8 -3 -9 12 -1 25 4 28 9 3 6 5 10 3 9 -2 -1
-14 -5 -28 -9z"/>
<path d="M8378 1688 c5 -5 16 -8 23 -6 8 3 3 7 -10 11 -17 4 -21 3 -13 -5z"/>
<path d="M8468 1688 c5 -5 16 -8 23 -6 8 3 3 7 -10 11 -17 4 -21 3 -13 -5z"/>
<path d="M5288 1683 c7 -3 16 -2 19 1 4 3 -2 6 -13 5 -11 0 -14 -3 -6 -6z"/>
<path d="M5448 1683 c6 -2 18 -2 25 0 6 3 1 5 -13 5 -14 0 -19 -2 -12 -5z"/>
<path d="M5858 1683 c7 -3 16 -2 19 1 4 3 -2 6 -13 5 -11 0 -14 -3 -6 -6z"/>
<path d="M5938 1683 c7 -3 16 -2 19 1 4 3 -2 6 -13 5 -11 0 -14 -3 -6 -6z"/>
<path d="M6188 1683 c7 -3 16 -2 19 1 4 3 -2 6 -13 5 -11 0 -14 -3 -6 -6z"/>
<path d="M6408 1683 c7 -3 16 -2 19 1 4 3 -2 6 -13 5 -11 0 -14 -3 -6 -6z"/>
<path d="M7178 1683 c7 -3 16 -2 19 1 4 3 -2 6 -13 5 -11 0 -14 -3 -6 -6z"/>
<path d="M7668 1683 c7 -3 16 -2 19 1 4 3 -2 6 -13 5 -11 0 -14 -3 -6 -6z"/>
<path d="M7908 1683 c7 -3 16 -2 19 1 4 3 -2 6 -13 5 -11 0 -14 -3 -6 -6z"/>
<path d="M8168 1683 c6 -2 18 -2 25 0 6 3 1 5 -13 5 -14 0 -19 -2 -12 -5z"/>
<path d="M8618 1683 c7 -3 16 -2 19 1 4 3 -2 6 -13 5 -11 0 -14 -3 -6 -6z"/>
<path d="M8738 1683 c7 -3 16 -2 19 1 4 3 -2 6 -13 5 -11 0 -14 -3 -6 -6z"/>
<path d="M8898 1683 c7 -3 16 -2 19 1 4 3 -2 6 -13 5 -11 0 -14 -3 -6 -6z"/>
<path d="M5008 1533 c12 -2 30 -2 40 0 9 3 -1 5 -23 4 -22 0 -30 -2 -17 -4z"/>
<path d="M7508 1533 c12 -2 32 -2 45 0 12 2 2 4 -23 4 -25 0 -35 -2 -22 -4z"/>
<path d="M7818 1533 c6 -2 18 -2 25 0 6 3 1 5 -13 5 -14 0 -19 -2 -12 -5z"/>
<path d="M8158 1533 c7 -3 16 -2 19 1 4 3 -2 6 -13 5 -11 0 -14 -3 -6 -6z"/>
<path d="M8223 1533 c9 -2 25 -2 35 0 9 3 1 5 -18 5 -19 0 -27 -2 -17 -5z"/>
<path d="M8573 1490 c0 -30 2 -43 4 -27 2 15 2 39 0 55 -2 15 -4 2 -4 -28z"/>
<path d="M8648 1533 c6 -2 18 -2 25 0 6 3 1 5 -13 5 -14 0 -19 -2 -12 -5z"/>
<path d="M8130 1511 c0 -6 4 -13 10 -16 6 -3 7 1 4 9 -7 18 -14 21 -14 7z"/>
<path d="M4841 1496 c-9 -10 -8 -16 3 -25 10 -9 16 -8 25 3 9 10 8 16 -3 25
-10 9 -16 8 -25 -3z"/>
<path d="M5139 1472 c5 -34 6 -35 9 -8 2 16 0 32 -5 37 -5 5 -7 -7 -4 -29z"/>
<path d="M7023 1475 c0 -22 2 -30 4 -17 2 12 2 30 0 40 -3 9 -5 -1 -4 -23z"/>
<path d="M7800 1500 c0 -6 7 -10 15 -10 8 0 15 2 15 4 0 2 -7 6 -15 10 -8 3
-15 1 -15 -4z"/>
<path d="M6452 1465 c0 -16 2 -22 5 -12 2 9 2 23 0 30 -3 6 -5 -1 -5 -18z"/>
<path d="M8080 1486 c0 -2 7 -7 16 -10 8 -3 12 -2 9 4 -6 10 -25 14 -25 6z"/>
<path d="M8382 1465 c0 -16 2 -22 5 -12 2 9 2 23 0 30 -3 6 -5 -1 -5 -18z"/>
<path d="M6405 1470 c-9 -15 4 -30 23 -29 15 1 14 2 -1 6 -11 3 -16 11 -13 19
6 16 0 19 -9 4z"/>
<path d="M8335 1470 c-9 -15 4 -30 23 -29 15 1 14 2 -1 6 -11 3 -16 11 -13 19
6 16 0 19 -9 4z"/>
<path d="M5428 1448 c6 -6 18 -8 28 -6 14 3 12 5 -9 10 -19 3 -25 2 -19 -4z"/>
<path d="M5545 1450 c-16 -7 -17 -9 -3 -9 9 -1 20 4 23 9 7 11 7 11 -20 0z"/>
<path d="M5768 1448 c6 -6 18 -8 28 -6 14 3 12 5 -9 10 -19 3 -25 2 -19 -4z"/>
<path d="M6198 1448 c6 -6 18 -8 28 -6 14 3 12 5 -9 10 -19 3 -25 2 -19 -4z"/>
<path d="M6497 1449 c7 -7 15 -10 18 -7 3 3 -2 9 -12 12 -14 6 -15 5 -6 -5z"/>
<path d="M6638 1448 c5 -5 16 -8 23 -6 8 3 3 7 -10 11 -17 4 -21 3 -13 -5z"/>
<path d="M6978 1448 c5 -5 16 -8 23 -6 8 3 3 7 -10 11 -17 4 -21 3 -13 -5z"/>
<path d="M7830 1450 c-23 -7 -23 -8 -3 -9 12 -1 25 4 28 9 3 6 5 10 3 9 -2 -1
-14 -5 -28 -9z"/>
<path d="M8080 1450 c-23 -7 -23 -8 -3 -9 12 -1 25 4 28 9 3 6 5 10 3 9 -2 -1
-14 -5 -28 -9z"/>
<path d="M8240 1450 c-23 -7 -23 -8 -3 -9 12 -1 25 4 28 9 3 6 5 10 3 9 -2 -1
-14 -5 -28 -9z"/>
<path d="M8655 1450 c-16 -7 -17 -9 -3 -9 9 -1 20 4 23 9 7 11 7 11 -20 0z"/>
<path d="M8980 1450 c-23 -7 -23 -8 -3 -9 12 -1 25 4 28 9 3 6 5 10 3 9 -2 -1
-14 -5 -28 -9z"/>
<path d="M5198 1443 c7 -3 16 -2 19 1 4 3 -2 6 -13 5 -11 0 -14 -3 -6 -6z"/>
<path d="M5608 1443 c6 -2 18 -2 25 0 6 3 1 5 -13 5 -14 0 -19 -2 -12 -5z"/>
<path d="M6018 1443 c7 -3 16 -2 19 1 4 3 -2 6 -13 5 -11 0 -14 -3 -6 -6z"/>
<path d="M6098 1443 c7 -3 16 -2 19 1 4 3 -2 6 -13 5 -11 0 -14 -3 -6 -6z"/>
<path d="M6348 1443 c7 -3 16 -2 19 1 4 3 -2 6 -13 5 -11 0 -14 -3 -6 -6z"/>
<path d="M6568 1443 c7 -3 16 -2 19 1 4 3 -2 6 -13 5 -11 0 -14 -3 -6 -6z"/>
<path d="M6788 1443 c7 -3 16 -2 19 1 4 3 -2 6 -13 5 -11 0 -14 -3 -6 -6z"/>
<path d="M7068 1443 c7 -3 16 -2 19 1 4 3 -2 6 -13 5 -11 0 -14 -3 -6 -6z"/>
<path d="M7743 1443 c9 -2 23 -2 30 0 6 3 -1 5 -18 5 -16 0 -22 -2 -12 -5z"/>
<path d="M7978 1443 c6 -2 18 -2 25 0 6 3 1 5 -13 5 -14 0 -19 -2 -12 -5z"/>
<path d="M8148 1443 c6 -2 18 -2 25 0 6 3 1 5 -13 5 -14 0 -19 -2 -12 -5z"/>
<path d="M8538 1443 c7 -3 16 -2 19 1 4 3 -2 6 -13 5 -11 0 -14 -3 -6 -6z"/>
<path d="M8728 1443 c7 -3 16 -2 19 1 4 3 -2 6 -13 5 -11 0 -14 -3 -6 -6z"/>
<path d="M8878 1443 c7 -3 16 -2 19 1 4 3 -2 6 -13 5 -11 0 -14 -3 -6 -6z"/>
<path d="M9058 1443 c7 -3 16 -2 19 1 4 3 -2 6 -13 5 -11 0 -14 -3 -6 -6z"/>
<path d="M9238 1443 c7 -3 16 -2 19 1 4 3 -2 6 -13 5 -11 0 -14 -3 -6 -6z"/>
<path d="M9318 1443 c7 -3 16 -2 19 1 4 3 -2 6 -13 5 -11 0 -14 -3 -6 -6z"/>
<path d="M6993 1250 c0 -30 2 -43 4 -27 2 15 2 39 0 55 -2 15 -4 2 -4 -28z"/>
<path d="M7951 1274 c0 -11 3 -14 6 -6 3 7 2 16 -1 19 -3 4 -6 -2 -5 -13z"/>
<path d="M4841 1256 c-9 -10 -8 -16 3 -25 10 -9 16 -8 25 3 9 10 8 16 -3 25
-10 9 -16 8 -25 -3z"/>
<path d="M6189 1232 c5 -34 6 -35 9 -8 2 16 0 32 -5 37 -5 5 -7 -7 -4 -29z"/>
<path d="M8189 1232 c5 -34 6 -35 9 -8 2 16 0 32 -5 37 -5 5 -7 -7 -4 -29z"/>
<path d="M5282 1225 c0 -16 2 -22 5 -12 2 9 2 23 0 30 -3 6 -5 -1 -5 -18z"/>
<path d="M5422 1225 c0 -16 2 -22 5 -12 2 9 2 23 0 30 -3 6 -5 -1 -5 -18z"/>
<path d="M6802 1225 c0 -16 2 -22 5 -12 2 9 2 23 0 30 -3 6 -5 -1 -5 -18z"/>
<path d="M5235 1230 c-9 -15 4 -30 23 -29 15 1 14 2 -1 6 -11 3 -16 11 -13 19
6 16 0 19 -9 4z"/>
<path d="M5375 1230 c-9 -15 4 -30 23 -29 15 1 14 2 -1 6 -11 3 -16 11 -13 19
6 16 0 19 -9 4z"/>
<path d="M5890 1233 c17 -8 11 -21 -12 -26 -20 -5 -20 -5 2 -4 26 2 35 28 12
33 -7 1 -8 0 -2 -3z"/>
<path d="M6755 1230 c-9 -15 4 -30 23 -29 15 1 14 2 -1 6 -11 3 -16 11 -13 19
6 16 0 19 -9 4z"/>
<path d="M5148 1208 c5 -5 16 -8 23 -6 8 3 3 7 -10 11 -17 4 -21 3 -13 -5z"/>
<path d="M5327 1209 c7 -7 15 -10 18 -7 3 3 -2 9 -12 12 -14 6 -15 5 -6 -5z"/>
<path d="M6328 1208 c6 -6 18 -8 28 -6 14 3 12 5 -9 10 -19 3 -25 2 -19 -4z"/>
<path d="M6548 1208 c6 -6 18 -8 28 -6 14 3 12 5 -9 10 -19 3 -25 2 -19 -4z"/>
<path d="M7348 1208 c6 -6 18 -8 28 -6 14 3 12 5 -9 10 -19 3 -25 2 -19 -4z"/>
<path d="M5488 1203 c7 -3 16 -2 19 1 4 3 -2 6 -13 5 -11 0 -14 -3 -6 -6z"/>
<path d="M5568 1203 c7 -3 16 -2 19 1 4 3 -2 6 -13 5 -11 0 -14 -3 -6 -6z"/>
<path d="M5648 1203 c7 -3 16 -2 19 1 4 3 -2 6 -13 5 -11 0 -14 -3 -6 -6z"/>
<path d="M5728 1203 c7 -3 16 -2 19 1 4 3 -2 6 -13 5 -11 0 -14 -3 -6 -6z"/>
<path d="M5988 1203 c7 -3 16 -2 19 1 4 3 -2 6 -13 5 -11 0 -14 -3 -6 -6z"/>
<path d="M6068 1203 c7 -3 16 -2 19 1 4 3 -2 6 -13 5 -11 0 -14 -3 -6 -6z"/>
<path d="M6428 1203 c7 -3 16 -2 19 1 4 3 -2 6 -13 5 -11 0 -14 -3 -6 -6z"/>
<path d="M6648 1203 c7 -3 16 -2 19 1 4 3 -2 6 -13 5 -11 0 -14 -3 -6 -6z"/>
<path d="M6958 1203 c7 -3 16 -2 19 1 4 3 -2 6 -13 5 -11 0 -14 -3 -6 -6z"/>
<path d="M7088 1203 c7 -3 16 -2 19 1 4 3 -2 6 -13 5 -11 0 -14 -3 -6 -6z"/>
<path d="M7168 1203 c7 -3 16 -2 19 1 4 3 -2 6 -13 5 -11 0 -14 -3 -6 -6z"/>
<path d="M7448 1203 c7 -3 16 -2 19 1 4 3 -2 6 -13 5 -11 0 -14 -3 -6 -6z"/>
<path d="M7518 1203 c7 -3 16 -2 19 1 4 3 -2 6 -13 5 -11 0 -14 -3 -6 -6z"/>
<path d="M7738 1203 c7 -3 16 -2 19 1 4 3 -2 6 -13 5 -11 0 -14 -3 -6 -6z"/>
<path d="M7828 1203 c7 -3 16 -2 19 1 4 3 -2 6 -13 5 -11 0 -14 -3 -6 -6z"/>
<path d="M8018 1203 c7 -3 16 -2 19 1 4 3 -2 6 -13 5 -11 0 -14 -3 -6 -6z"/>
<path d="M8298 1203 c7 -3 16 -2 19 1 4 3 -2 6 -13 5 -11 0 -14 -3 -6 -6z"/>
<path d="M6080 832 l0 -59 32 -1 c40 -1 58 13 58 44 0 26 -30 47 -54 38 -12
-4 -16 0 -16 15 0 12 -4 21 -10 21 -6 0 -10 -26 -10 -58z m68 -15 c4 -21 -25
-34 -40 -19 -8 8 -8 16 2 27 16 19 34 15 38 -8z"/>
<path d="M4850 825 c0 -42 3 -55 15 -55 10 0 15 10 15 28 l0 27 19 -25 19 -24
13 27 c16 36 29 34 29 -3 0 -16 5 -30 10 -30 6 0 10 25 10 55 0 64 -15 72 -43
24 -14 -25 -20 -29 -32 -19 -8 6 -17 20 -20 31 -4 10 -13 19 -21 19 -10 0 -14
-14 -14 -55z"/>
<path d="M5654 866 c-3 -7 -4 -17 -3 -22 1 -5 -1 -17 -5 -26 -15 -34 0 -49 46
-45 34 3 42 8 43 25 1 15 -3 21 -14 20 -12 -2 -15 4 -13 30 3 29 1 32 -23 32
-14 0 -28 -6 -31 -14z m36 -11 c0 -8 -4 -15 -10 -15 -5 0 -10 7 -10 15 0 8 5
15 10 15 6 0 10 -7 10 -15z m0 -50 c10 -13 9 -15 -9 -15 -12 0 -21 6 -21 15 0
8 4 15 9 15 5 0 14 -7 21 -15z"/>
<path d="M5800 872 c0 -27 34 -102 46 -102 8 0 14 4 14 9 0 5 5 22 11 38 l11
28 13 -35 c18 -54 38 -49 56 15 18 61 4 73 -17 14 l-12 -34 -11 28 c-6 16 -11
33 -11 38 0 24 -29 5 -42 -28 l-14 -38 -13 38 c-11 33 -31 51 -31 29z"/>
<path d="M6240 825 l0 -55 35 0 c39 0 75 28 75 58 0 29 -33 52 -73 52 l-37 0
0 -55z m79 17 c13 -25 -5 -52 -34 -52 -22 0 -25 5 -25 35 0 31 3 35 25 35 13
0 29 -8 34 -18z"/>
<path d="M5010 850 c-16 -10 -8 -14 23 -11 25 3 21 -17 -5 -21 -15 -2 -23 -10
-23 -23 0 -16 7 -20 38 -22 34 -1 37 1 37 27 0 47 -36 72 -70 50z m40 -48 c0
-13 -12 -22 -22 -16 -10 6 -1 24 13 24 5 0 9 -4 9 -8z"/>
<path d="M5128 852 c-25 -3 -28 -7 -28 -43 0 -28 4 -39 15 -39 10 0 15 10 15
29 0 17 5 33 11 37 14 8 29 -14 29 -43 0 -13 5 -23 10 -23 6 0 10 16 10 35 0
39 -19 53 -62 47z"/>
<path d="M5220 850 c-16 -10 -8 -14 23 -11 25 3 21 -17 -5 -21 -15 -2 -23 -10
-23 -23 0 -16 7 -20 38 -22 34 -1 37 1 37 27 0 47 -36 72 -70 50z m40 -48 c0
-13 -12 -22 -22 -16 -10 6 -1 24 13 24 5 0 9 -4 9 -8z"/>
<path d="M5326 847 c-11 -8 -17 -22 -14 -38 2 -19 10 -25 36 -27 40 -4 32 -22
-9 -22 -18 0 -28 -4 -24 -10 9 -14 58 -13 73 2 18 18 16 98 -2 98 -8 0 -20 2
-28 5 -7 3 -22 -1 -32 -8z m50 -18 c10 -17 -23 -46 -37 -32 -7 7 -9 19 -6 27
7 18 33 21 43 5z"/>
<path d="M5448 852 c-23 -5 -34 -48 -18 -67 14 -17 56 -20 65 -5 3 6 -5 10
-19 10 -14 0 -28 5 -31 10 -4 6 8 10 29 10 36 0 42 6 28 26 -9 14 -33 21 -54
16z m37 -22 c4 -6 -5 -10 -20 -10 -15 0 -24 4 -20 10 3 6 12 10 20 10 8 0 17
-4 20 -10z"/>
<path d="M5553 852 c-19 -3 -23 -10 -23 -43 0 -21 5 -39 10 -39 6 0 10 12 10
26 0 15 8 33 17 40 22 15 16 21 -14 16z"/>
<path d="M5990 842 c-17 -13 -21 -24 -16 -40 8 -25 52 -40 69 -23 8 8 4 11
-16 11 -15 0 -27 5 -27 10 0 6 14 10 30 10 33 0 38 11 14 34 -20 20 -27 20
-54 -2z m45 -12 c3 -5 -3 -10 -14 -10 -12 0 -21 5 -21 10 0 6 6 10 14 10 8 0
18 -4 21 -10z"/>
<path d="M6380 842 c-17 -13 -21 -24 -16 -40 8 -25 52 -40 69 -23 8 8 4 11
-16 11 -15 0 -27 5 -27 10 0 6 14 10 30 10 33 0 38 11 14 34 -20 20 -27 20
-54 -2z m45 -12 c3 -5 -3 -10 -14 -10 -12 0 -21 5 -21 10 0 6 6 10 14 10 8 0
18 -4 21 -10z"/>
<path d="M6475 814 c8 -20 15 -38 15 -40 0 -2 6 -4 13 -4 8 0 21 18 30 40 17
44 4 56 -15 14 l-12 -25 -13 25 c-21 40 -35 31 -18 -10z"/>
<path d="M6183 515 c0 -33 2 -45 4 -27 2 18 2 45 0 60 -2 15 -4 0 -4 -33z"/>
<path d="M6843 223 c9 -2 25 -2 35 0 9 3 1 5 -18 5 -19 0 -27 -2 -17 -5z"/>
<path d="M4841 186 c-9 -10 -8 -16 3 -25 10 -9 16 -8 25 3 9 10 8 16 -3 25
-10 9 -16 8 -25 -3z"/>
<path d="M7244 178 l-19 -23 23 19 c21 18 27 26 19 26 -2 0 -12 -10 -23 -22z"/>
<path d="M7490 158 c-3 -26 -1 -43 3 -39 5 5 7 26 5 47 l-3 39 -5 -47z"/>
<path d="M6362 155 c0 -16 2 -22 5 -12 2 9 2 23 0 30 -3 6 -5 -1 -5 -18z"/>
<path d="M6315 160 c-9 -15 4 -30 23 -29 15 1 14 2 -1 6 -11 3 -16 11 -13 19
6 16 0 19 -9 4z"/>
<path d="M7250 156 c0 -2 8 -10 18 -17 15 -13 16 -12 3 4 -13 16 -21 21 -21
13z"/>
<path d="M5385 140 c-16 -7 -17 -9 -3 -9 9 -1 20 4 23 9 7 11 7 11 -20 0z"/>
<path d="M5557 139 c7 -7 15 -10 18 -7 3 3 -2 9 -12 12 -14 6 -15 5 -6 -5z"/>
<path d="M5608 138 c6 -6 18 -8 28 -6 14 3 12 5 -9 10 -19 3 -25 2 -19 -4z"/>
<path d="M6108 138 c6 -6 18 -8 28 -6 14 3 12 5 -9 10 -19 3 -25 2 -19 -4z"/>
<path d="M6407 139 c7 -7 15 -10 18 -7 3 3 -2 9 -12 12 -14 6 -15 5 -6 -5z"/>
<path d="M6860 140 c-23 -7 -23 -8 -3 -9 12 -1 25 4 28 9 3 6 5 10 3 9 -2 -1
-14 -5 -28 -9z"/>
<path d="M5288 133 c7 -3 16 -2 19 1 4 3 -2 6 -13 5 -11 0 -14 -3 -6 -6z"/>
<path d="M5448 133 c6 -2 18 -2 25 0 6 3 1 5 -13 5 -14 0 -19 -2 -12 -5z"/>
<path d="M5858 133 c7 -3 16 -2 19 1 4 3 -2 6 -13 5 -11 0 -14 -3 -6 -6z"/>
<path d="M5938 133 c7 -3 16 -2 19 1 4 3 -2 6 -13 5 -11 0 -14 -3 -6 -6z"/>
<path d="M6038 133 c6 -2 18 -2 25 0 6 3 1 5 -13 5 -14 0 -19 -2 -12 -5z"/>
<path d="M6258 133 c7 -3 16 -2 19 1 4 3 -2 6 -13 5 -11 0 -14 -3 -6 -6z"/>
<path d="M6478 133 c7 -3 16 -2 19 1 4 3 -2 6 -13 5 -11 0 -14 -3 -6 -6z"/>
<path d="M6558 133 c7 -3 16 -2 19 1 4 3 -2 6 -13 5 -11 0 -14 -3 -6 -6z"/>
<path d="M7098 133 c7 -3 16 -2 19 1 4 3 -2 6 -13 5 -11 0 -14 -3 -6 -6z"/>
<path d="M7588 133 c7 -3 16 -2 19 1 4 3 -2 6 -13 5 -11 0 -14 -3 -6 -6z"/>
<path d="M7828 133 c7 -3 16 -2 19 1 4 3 -2 6 -13 5 -11 0 -14 -3 -6 -6z"/>
</g>
</svg>
