<svg width="32" height="32" viewBox="0 0 32 32" fill="none" xmlns="http://www.w3.org/2000/svg">
<path d="M16 0C7.17748 0 0 7.17748 0 16C0 24.8225 7.17748 32 16 32C24.8225 32 32 24.8225 32 16C32 7.17748 24.8225 0 16 0ZM27.7156 25.0519C26.3567 24.3283 24.7081 23.7333 22.8806 23.3049C23.3677 21.2895 23.6569 19.0187 23.6972 16.5926H30.8C30.6744 19.7701 29.5431 22.6927 27.7156 25.0519ZM1.2 16.5926H3.6557C3.90933 17.3967 4.65363 17.9858 5.54074 17.9858C6.45156 17.9858 7.21304 17.3659 7.44593 16.5286C7.52474 16.5665 7.61007 16.5926 7.7037 16.5926H8.30341C8.3437 18.9831 8.62459 21.2243 9.09926 23.2184C7.25333 23.6207 5.5757 24.189 4.16533 24.9001C2.40711 22.5677 1.32326 19.7019 1.2 16.5926ZM4.19319 7.0643C5.56207 7.83644 7.22252 8.45867 9.06785 8.91022C8.61156 10.8717 8.34252 13.0679 8.30341 15.4074H7.7037C7.61007 15.4074 7.52474 15.4335 7.44593 15.472C7.21304 14.6341 6.45156 14.0148 5.54074 14.0148C4.65363 14.0148 3.90933 14.6033 3.6557 15.408H1.2C1.32385 12.2821 2.41896 9.40326 4.19319 7.0643ZM16 11.8519C16.3265 11.8519 16.5926 12.1179 16.5926 12.4444C16.5926 12.771 16.3265 13.037 16 13.037C15.6735 13.037 15.4074 12.771 15.4074 12.4444C15.4074 12.1179 15.6735 11.8519 16 11.8519ZM16.5926 14.1132C17.2806 13.8673 17.7778 13.216 17.7778 12.4444C17.7778 11.6729 17.2806 11.0216 16.5926 10.7757V9.74933C18.3828 9.73985 20.1339 9.58459 21.7873 9.30548C22.2139 11.1615 22.4717 13.232 22.512 15.4074H16.5926V14.1132ZM16.5926 8.56415V1.25215C18.6293 1.69244 20.4273 4.368 21.4939 8.15585C19.9366 8.41244 18.2839 8.55467 16.5926 8.56415ZM15.4074 1.25215V8.54282C13.7108 8.49126 12.0741 8.3117 10.5464 8.01481C11.6178 4.30163 13.3967 1.68652 15.4074 1.25215ZM15.4074 9.73748V10.7757C14.7188 11.0216 14.2222 11.6729 14.2222 12.4444C14.2222 13.216 14.7188 13.8673 15.4074 14.1126V15.4074H9.48859C9.52948 13.1793 9.79852 11.0607 10.2441 9.16978C11.8684 9.49037 13.6101 9.68474 15.4074 9.73748ZM6.34133 16C6.34133 16.4415 5.98222 16.8006 5.54074 16.8006C5.09926 16.8006 4.74074 16.4415 4.74074 16C4.74074 15.5585 5.09985 15.1994 5.54133 15.1994C5.98281 15.1994 6.34133 15.5585 6.34133 16ZM9.48859 16.5926H15.4074V22.5292C13.6385 22.5493 11.9111 22.7093 10.2815 22.992C9.81333 21.0613 9.53067 18.8836 9.48859 16.5926ZM15.4074 23.7138V30.7479C13.424 30.3194 11.6664 27.7713 10.5902 24.1393C12.1203 23.8797 13.7428 23.7333 15.4074 23.7138ZM16.5926 30.7479V23.7197C16.6305 23.7209 16.6696 23.7209 16.707 23.7221C16.9576 24.4012 17.6053 24.8889 18.3704 24.8889C19.037 24.8889 19.6119 24.5161 19.9159 23.9716C20.4172 24.0373 20.909 24.1144 21.3908 24.2039C20.3135 27.8021 18.5641 30.3218 16.5926 30.7479ZM18.3704 23.7037C18.0433 23.7037 17.7778 23.4382 17.7778 23.1111C17.7778 22.784 18.0433 22.5185 18.3704 22.5185C18.6975 22.5185 18.963 22.784 18.963 23.1111C18.963 23.4382 18.6975 23.7037 18.3704 23.7037ZM20.1167 22.8036C19.9704 21.9698 19.2456 21.3333 18.3704 21.3333C17.5923 21.3333 16.9363 21.8394 16.6963 22.5363C16.6619 22.5357 16.6276 22.5351 16.5926 22.5345V16.5926H22.5114C22.4693 18.9096 22.1796 21.1099 21.7025 23.0566C21.184 22.9582 20.6548 22.8753 20.1167 22.8036ZM23.6966 15.4074C23.6587 13.1384 23.4044 11.0033 22.9724 9.08681C24.8693 8.68385 26.5896 8.1037 28.0344 7.376C29.6735 9.65689 30.6815 12.419 30.7994 15.4068L23.6966 15.4074ZM27.2871 6.41956C25.9627 7.06015 24.4047 7.57689 22.6844 7.93837C21.9247 5.18222 20.7816 2.96415 19.3944 1.58163C22.5227 2.31881 25.2711 4.04741 27.2871 6.41956ZM12.6056 1.58222C11.2486 2.93452 10.125 5.08385 9.36533 7.75644C7.70607 7.3517 6.21156 6.80474 4.96593 6.12741C6.95644 3.90519 9.60652 2.288 12.6056 1.58222ZM4.94104 25.8436C6.22874 25.2231 7.73748 24.7218 9.39852 24.3633C10.1576 26.9807 11.2687 29.0856 12.6056 30.4178C9.59348 29.709 6.93452 28.0806 4.94104 25.8436ZM19.395 30.4178C20.7164 29.1004 21.8175 27.0264 22.5754 24.4498C24.2169 24.8326 25.7007 25.3517 26.9375 25.9816C24.9582 28.1481 22.3449 29.7233 19.395 30.4178Z" fill="#FFBB01"/>
</svg>
