<svg width="16" height="16" viewBox="0 0 16 16" fill="none" xmlns="http://www.w3.org/2000/svg">
<rect width="16" height="16" rx="2" fill="black"/>
<path d="M8 1C4.14015 1 1 4.14015 1 8C1 11.8599 4.14015 15 8 15C11.8599 15 15 11.8599 15 8C15 4.14015 11.8599 1 8 1ZM13.1256 11.9602C12.5311 11.6436 11.8098 11.3833 11.0103 11.1959C11.2234 10.3141 11.3499 9.32067 11.3675 8.25926H14.475C14.42 9.64941 13.9251 10.9281 13.1256 11.9602ZM1.525 8.25926H2.59937C2.71033 8.61107 3.03596 8.86878 3.42407 8.86878C3.82256 8.86878 4.1557 8.59759 4.25759 8.23126C4.29207 8.24785 4.32941 8.25926 4.37037 8.25926H4.63274C4.65037 9.30511 4.77326 10.2856 4.98093 11.158C4.17333 11.3341 3.43937 11.5827 2.82233 11.8938C2.05311 10.8734 1.57893 9.61959 1.525 8.25926ZM2.83452 4.09063C3.43341 4.42844 4.15985 4.70067 4.96719 4.89822C4.76756 5.75637 4.64985 6.71719 4.63274 7.74074H4.37037C4.32941 7.74074 4.29207 7.75215 4.25759 7.769C4.1557 7.40241 3.82256 7.13148 3.42407 7.13148C3.03596 7.13148 2.71033 7.38893 2.59937 7.741H1.525C1.57919 6.37341 2.0583 5.11393 2.83452 4.09063ZM8 6.18518C8.14285 6.18518 8.25926 6.30159 8.25926 6.44444C8.25926 6.5873 8.14285 6.7037 8 6.7037C7.85715 6.7037 7.74074 6.5873 7.74074 6.44444C7.74074 6.30159 7.85715 6.18518 8 6.18518ZM8.25926 7.17452C8.56026 7.06693 8.77778 6.782 8.77778 6.44444C8.77778 6.10689 8.56026 5.82196 8.25926 5.71437V5.26533C9.04248 5.26119 9.80859 5.19326 10.5319 5.07115C10.7186 5.88315 10.8314 6.789 10.849 7.74074H8.25926V7.17452ZM8.25926 4.74681V1.54781C9.15033 1.74044 9.93693 2.911 10.4036 4.56819C9.72226 4.68044 8.99919 4.74267 8.25926 4.74681ZM7.74074 1.54781V4.73748C6.99848 4.71493 6.28241 4.63637 5.61404 4.50648C6.08278 2.88196 6.86107 1.73785 7.74074 1.54781ZM7.74074 5.26015V5.71437C7.43948 5.82196 7.22222 6.10689 7.22222 6.44444C7.22222 6.782 7.43948 7.06693 7.74074 7.17426V7.74074H5.15126C5.16915 6.76593 5.28685 5.83907 5.48181 5.01178C6.19244 5.15204 6.95441 5.23707 7.74074 5.26015ZM3.77433 8C3.77433 8.19315 3.61722 8.35026 3.42407 8.35026C3.23093 8.35026 3.07407 8.19315 3.07407 8C3.07407 7.80685 3.23119 7.64974 3.42433 7.64974C3.61748 7.64974 3.77433 7.80685 3.77433 8ZM5.15126 8.25926H7.74074V10.8565C6.96685 10.8653 6.21111 10.9353 5.49815 11.059C5.29333 10.2143 5.16967 9.26156 5.15126 8.25926ZM7.74074 11.3748V14.4522C6.873 14.2647 6.10404 13.1499 5.63322 11.5609C6.30263 11.4474 7.01248 11.3833 7.74074 11.3748ZM8.25926 14.4522V11.3774C8.27585 11.3779 8.29296 11.3779 8.3093 11.3784C8.41896 11.6755 8.70233 11.8889 9.03704 11.8889C9.3287 11.8889 9.58019 11.7258 9.71319 11.4876C9.93252 11.5163 10.1477 11.55 10.3585 11.5892C9.88715 13.1634 9.12181 14.2658 8.25926 14.4522ZM9.03704 11.3704C8.89393 11.3704 8.77778 11.2542 8.77778 11.1111C8.77778 10.968 8.89393 10.8519 9.03704 10.8519C9.18015 10.8519 9.2963 10.968 9.2963 11.1111C9.2963 11.2542 9.18015 11.3704 9.03704 11.3704ZM9.80107 10.9766C9.73704 10.6118 9.41996 10.3333 9.03704 10.3333C8.69663 10.3333 8.40963 10.5547 8.30463 10.8596C8.28959 10.8594 8.27456 10.8591 8.25926 10.8589V8.25926H10.8487C10.8303 9.27296 10.7036 10.2356 10.4949 11.0873C10.268 11.0442 10.0365 11.0079 9.80107 10.9766ZM11.3673 7.74074C11.3507 6.74804 11.2394 5.81393 11.0504 4.97548C11.8803 4.79919 12.633 4.54537 13.265 4.227C13.9821 5.22489 14.4231 6.4333 14.4747 7.74048L11.3673 7.74074ZM12.9381 3.80856C12.3587 4.08881 11.6771 4.31489 10.9244 4.47304C10.5921 3.26722 10.092 2.29681 9.48504 1.69196C10.8537 2.01448 12.0561 2.77074 12.9381 3.80856ZM6.51496 1.69222C5.92126 2.28385 5.4297 3.22419 5.09733 4.39344C4.37141 4.21637 3.71756 3.97707 3.17259 3.68074C4.04344 2.70852 5.20285 2.001 6.51496 1.69222ZM3.1617 12.3066C3.72507 12.0351 4.38515 11.8158 5.11185 11.6589C5.44396 12.8041 5.93007 13.725 6.51496 14.3078C5.19715 13.9977 4.03385 13.2853 3.1617 12.3066ZM9.4853 14.3078C10.0634 13.7314 10.5451 12.824 10.8767 11.6968C11.5949 11.8643 12.2441 12.0914 12.7851 12.367C11.9192 13.3148 10.7759 14.0039 9.4853 14.3078Z" fill="#FFBB01"/>
</svg>
